<svg xmlns="http://www.w3.org/2000/svg" xmlns:xlink="http://www.w3.org/1999/xlink" width="500" zoomAndPan="magnify" viewBox="0 0 375 374.999991" height="500" preserveAspectRatio="xMidYMid meet" version="1.0"><defs><g/><clipPath id="d3d67f1bfe"><path d="M 301 259 L 337 259 L 337 324.816406 L 301 324.816406 Z M 301 259 " clip-rule="nonzero"/></clipPath><clipPath id="f2ca397af5"><path d="M 37 50.316406 L 91 50.316406 L 91 102 L 37 102 Z M 37 50.316406 " clip-rule="nonzero"/></clipPath><clipPath id="c1ce8a5c56"><path d="M 238 70 L 338.792969 70 L 338.792969 172 L 238 172 Z M 238 70 " clip-rule="nonzero"/></clipPath></defs><g clip-path="url(#d3d67f1bfe)"><path fill="#dfeef7" d="M 335.539062 263.542969 C 338.757812 287.167969 328.226562 309.984375 309.558594 323.167969 C 307.253906 324.796875 304.03125 324.039062 302.601562 321.605469 L 302.226562 320.96875 C 300.9375 318.773438 301.574219 315.988281 303.648438 314.519531 C 319.085938 303.570312 327.804688 284.675781 325.183594 265.078125 C 324.84375 262.5625 326.460938 260.207031 328.941406 259.65625 L 329.652344 259.5 C 332.414062 258.890625 335.15625 260.746094 335.539062 263.542969 " fill-opacity="1" fill-rule="nonzero"/></g><path fill="#dfeef7" d="M 315.039062 268.394531 C 316.273438 282.660156 310.066406 296.269531 299.226562 304.777344 C 296.875 306.625 293.445312 306.054688 291.925781 303.480469 L 291.570312 302.878906 C 290.300781 300.730469 290.914062 298.039062 292.871094 296.488281 C 300.941406 290.078125 305.542969 279.917969 304.609375 269.246094 C 304.398438 266.847656 306.105469 264.699219 308.453125 264.179688 L 309.117188 264.035156 C 312 263.398438 314.789062 265.453125 315.039062 268.394531 " fill-opacity="1" fill-rule="nonzero"/><g clip-path="url(#f2ca397af5)"><path fill="#dfeef7" d="M 37.25 95.734375 C 43.519531 72.726562 62.132812 55.835938 84.46875 50.984375 C 87.230469 50.386719 89.902344 52.34375 90.265625 55.140625 L 90.363281 55.875 C 90.695312 58.394531 89.015625 60.710938 86.535156 61.253906 C 68.042969 65.308594 52.628906 79.300781 47.382812 98.363281 C 46.710938 100.808594 44.304688 102.347656 41.808594 101.886719 L 41.089844 101.75 C 38.3125 101.234375 36.507812 98.457031 37.25 95.734375 " fill-opacity="1" fill-rule="nonzero"/></g><path fill="#dfeef7" d="M 58.011719 99.265625 C 62.460938 85.652344 73.492188 75.550781 86.796875 71.949219 C 89.683594 71.167969 92.617188 73.03125 93.011719 75.992188 L 93.101562 76.6875 C 93.425781 79.160156 91.8125 81.394531 89.40625 82.0625 C 79.46875 84.8125 71.261719 92.367188 67.953125 102.558594 C 67.210938 104.84375 64.796875 106.15625 62.433594 105.71875 L 61.765625 105.59375 C 58.859375 105.054688 57.101562 102.074219 58.011719 99.265625 " fill-opacity="1" fill-rule="nonzero"/><path fill="#fec108" d="M 306.574219 156.089844 L 288.488281 269.25 C 286.242188 283.300781 273.027344 292.878906 258.960938 290.632812 L 83.726562 262.660156 C 69.660156 260.417969 60.085938 247.195312 62.332031 233.148438 L 80.417969 119.988281 C 81.347656 114.164062 84.164062 109.113281 88.144531 105.355469 C 93.765625 100.03125 101.710938 97.289062 109.949219 98.605469 L 285.179688 126.578125 C 293.417969 127.890625 300.113281 132.96875 303.796875 139.78125 C 306.40625 144.589844 307.507812 150.261719 306.574219 156.089844 " fill-opacity="1" fill-rule="nonzero"/><path fill="#feb60a" d="M 88.144531 105.355469 L 183.347656 229.148438 L 303.796875 139.78125 Z M 88.144531 105.355469 " fill-opacity="1" fill-rule="nonzero"/><path fill="#fdac01" d="M 65.113281 249.457031 L 187.054688 178.351562 L 280.765625 283.882812 C 275.144531 289.207031 267.199219 291.949219 258.960938 290.632812 L 83.726562 262.660156 C 75.488281 261.347656 68.792969 256.265625 65.113281 249.457031 " fill-opacity="1" fill-rule="nonzero"/><path fill="#ffd54f" d="M 303.796875 139.78125 L 181.855469 210.886719 L 88.144531 105.355469 C 93.765625 100.03125 101.710938 97.289062 109.949219 98.605469 L 285.179688 126.578125 C 293.417969 127.890625 300.113281 132.96875 303.796875 139.78125 " fill-opacity="1" fill-rule="nonzero"/><g clip-path="url(#c1ce8a5c56)"><path fill="#f5554a" d="M 338.527344 121.179688 C 338.527344 93.460938 316.042969 70.988281 288.304688 70.988281 C 260.566406 70.988281 238.078125 93.460938 238.078125 121.179688 C 238.078125 148.902344 260.566406 171.378906 288.304688 171.378906 C 316.042969 171.378906 338.527344 148.902344 338.527344 121.179688 " fill-opacity="1" fill-rule="nonzero"/></g><path fill="#ffffff" d="M 285.519531 112.460938 C 284.71875 113.1875 283.847656 113.753906 282.90625 114.164062 C 281.957031 114.578125 280.847656 114.785156 279.5625 114.785156 C 278.835938 114.785156 278.167969 114.644531 277.550781 114.367188 C 276.929688 114.089844 276.40625 113.714844 275.96875 113.242188 C 275.535156 112.769531 275.191406 112.234375 274.9375 111.628906 C 274.683594 111.023438 274.554688 110.382812 274.554688 109.707031 C 274.554688 109.027344 274.664062 108.441406 274.882812 107.945312 C 275.101562 107.449219 275.402344 107.019531 275.789062 106.65625 C 276.171875 106.296875 276.621094 105.96875 277.128906 105.675781 C 277.640625 105.386719 278.183594 105.085938 278.765625 104.769531 C 279.972656 103.972656 281.058594 103.164062 282.015625 102.339844 C 282.972656 101.515625 283.824219 100.75 284.574219 100.035156 C 285.324219 99.320312 285.976562 98.710938 286.535156 98.203125 C 287.089844 97.695312 287.574219 97.34375 287.988281 97.152344 C 288.226562 97.03125 288.453125 96.925781 288.660156 96.84375 C 288.863281 96.757812 289.074219 96.699219 289.292969 96.664062 C 289.511719 96.625 289.753906 96.601562 290.019531 96.589844 C 290.285156 96.574219 290.625 96.570312 291.035156 96.570312 C 292.292969 96.570312 293.292969 96.824219 294.03125 97.332031 C 294.769531 97.839844 295.324219 98.5 295.699219 99.3125 C 296.078125 100.121094 296.3125 101.03125 296.40625 102.050781 C 296.503906 103.066406 296.550781 104.09375 296.550781 105.132812 L 296.550781 138.800781 C 296.550781 139.863281 296.503906 140.910156 296.40625 141.941406 C 296.3125 142.96875 296.078125 143.878906 295.699219 144.679688 C 295.324219 145.476562 294.769531 146.125 294.03125 146.617188 C 293.292969 147.117188 292.292969 147.363281 291.035156 147.363281 C 289.753906 147.363281 288.75 147.117188 288.023438 146.617188 C 287.296875 146.125 286.746094 145.476562 286.371094 144.679688 C 285.992188 143.878906 285.757812 142.96875 285.660156 141.941406 C 285.566406 140.910156 285.519531 139.863281 285.519531 138.800781 L 285.519531 112.460938 " fill-opacity="1" fill-rule="nonzero"/><g fill="#ffde59" fill-opacity="1"><g transform="translate(191.684548, 173.196346)"><g><path d="M 2.109375 0.078125 C 1.804688 0.078125 1.566406 -0.00390625 1.390625 -0.171875 C 1.222656 -0.335938 1.140625 -0.5625 1.140625 -0.84375 C 1.140625 -1.113281 1.222656 -1.332031 1.390625 -1.5 C 1.566406 -1.675781 1.804688 -1.765625 2.109375 -1.765625 C 2.410156 -1.765625 2.644531 -1.679688 2.8125 -1.515625 C 2.988281 -1.347656 3.078125 -1.128906 3.078125 -0.859375 C 3.078125 -0.578125 2.988281 -0.347656 2.8125 -0.171875 C 2.632812 -0.00390625 2.398438 0.078125 2.109375 0.078125 Z M 2.109375 0.078125 "/></g></g></g></svg>