<svg xmlns="http://www.w3.org/2000/svg" xmlns:xlink="http://www.w3.org/1999/xlink" width="500" zoomAndPan="magnify" viewBox="0 0 375 374.999991" height="500" preserveAspectRatio="xMidYMid meet" version="1.0"><defs><g/></defs><g fill="#000000" fill-opacity="1"><g transform="translate(92.6132, 210.374986)"><g><path d="M 56.75 -37.15625 L 24.234375 -37.15625 L 24.234375 -31.375 L 56.75 -31.375 L 56.75 0 L 3.578125 0 L 3.578125 -12.859375 L 43.875 -12.859375 L 43.875 -18.515625 L 3.578125 -18.515625 L 3.578125 -31.375 L 11.359375 -31.375 L 11.359375 -37.15625 L 3.578125 -37.15625 L 3.578125 -50.03125 L 11.359375 -50.03125 L 11.359375 -58.171875 L 24.234375 -58.171875 L 24.234375 -50.03125 L 56.75 -50.03125 Z M 56.75 -37.15625 "/></g></g></g><g fill="#000000" fill-opacity="1"><g transform="translate(149.718665, 210.374986)"><g/></g></g><g fill="#000000" fill-opacity="1"><g transform="translate(174.372167, 210.374986)"><g/></g></g><g fill="#000000" fill-opacity="1"><g transform="translate(199.025669, 210.374986)"><g/></g></g><g fill="#000000" fill-opacity="1"><g transform="translate(223.68741, 210.374986)"><g><path d="M 44.953125 -15.71875 C 46.429688 -10.863281 48.441406 -7.03125 50.984375 -4.21875 C 53.535156 -1.40625 56.097656 0 58.671875 0 L 58.671875 12.859375 C 54.484375 12.859375 50.585938 11.644531 46.984375 9.21875 C 43.390625 6.789062 40.269531 3.429688 37.625 -0.859375 C 34.976562 -5.148438 32.988281 -10.101562 31.65625 -15.71875 L 22.515625 -15.71875 L 22.515625 0 L 9.640625 0 L 9.640625 -15.71875 L 3.578125 -15.71875 L 3.578125 -50.03125 L 55.671875 -50.03125 L 55.671875 -15.71875 Z M 16.4375 -37.15625 L 16.4375 -28.59375 L 42.8125 -28.59375 L 42.8125 -37.15625 Z M 16.4375 -37.15625 "/></g></g></g><g fill="#b62f35" fill-opacity="1"><g transform="translate(155.545599, 206.496694)"><g><path d="M 22.234375 -21.96875 L 19.921875 -26.703125 C 19.410156 -27.929688 18.6875 -30.101562 17.75 -33.21875 C 14.4375 -32.28125 11.4375 -30.9375 8.75 -29.1875 C 9.5625 -26.375 10.285156 -24.242188 10.921875 -22.796875 C 11.347656 -21.609375 12.203125 -19.820312 13.484375 -17.4375 C 16.710938 -18.675781 19.628906 -20.1875 22.234375 -21.96875 Z M 49.0625 -35.0625 C 47.007812 -30.976562 44.085938 -27.019531 40.296875 -23.1875 C 43.242188 -21.351562 46.25 -20.054688 49.3125 -19.296875 C 53.1875 -23.847656 56.101562 -28.210938 58.0625 -32.390625 C 55.25 -33.617188 52.25 -34.507812 49.0625 -35.0625 Z M 61.578125 -17.5625 C 53.441406 -17.78125 45.203125 -17.675781 36.859375 -17.25 C 36.773438 -23.632812 36.796875 -29.765625 36.921875 -35.640625 C 43.859375 -36.109375 51.160156 -36.707031 58.828125 -37.4375 C 59.335938 -40.457031 59.488281 -43.414062 59.28125 -46.3125 C 42.03125 -44.09375 24.484375 -43.28125 6.640625 -43.875 C 6.171875 -41.445312 5.875 -38.785156 5.75 -35.890625 C 12.90625 -35.472656 20.523438 -35.304688 28.609375 -35.390625 C 28.140625 -29.515625 27.820312 -23.335938 27.65625 -16.859375 C 19.90625 -16.429688 12.050781 -15.796875 4.09375 -14.953125 C 3.582031 -12.773438 3.28125 -10.175781 3.1875 -7.15625 C 11.664062 -7.875 19.78125 -8.34375 27.53125 -8.5625 C 27.445312 -2.9375 27.53125 2.914062 27.78125 9 C 30.976562 9.894531 34.28125 10.046875 37.6875 9.453125 C 37.34375 3.109375 37.128906 -2.976562 37.046875 -8.8125 C 45.898438 -9.03125 54.078125 -8.90625 61.578125 -8.4375 C 62.003906 -11.332031 62.003906 -14.375 61.578125 -17.5625 Z M 61.578125 -17.5625 "/></g></g></g></svg>