<svg xmlns="http://www.w3.org/2000/svg" xmlns:xlink="http://www.w3.org/1999/xlink" width="3780" zoomAndPan="magnify" viewBox="0 0 2835 1417.499962" height="1890" preserveAspectRatio="xMidYMid meet" version="1.0"><defs><g/><clipPath id="121ac1e08b"><path d="M 0.839844 0 L 2493.320312 0 L 2493.320312 1417 L 0.839844 1417 Z M 0.839844 0 " clip-rule="nonzero"/></clipPath><clipPath id="98729254f4"><rect x="0" width="2494" y="0" height="1417"/></clipPath><clipPath id="0d3b115380"><rect x="0" width="2494" y="0" height="1417"/></clipPath></defs><g transform="matrix(1, 0, 0, 1, 170, 0)"><g clip-path="url(#0d3b115380)"><g clip-path="url(#121ac1e08b)"><g transform="matrix(1, 0, 0, 1, -0.000000000000056843, 0)"><g clip-path="url(#98729254f4)"><g fill="#000000" fill-opacity="1"><g transform="translate(2.089659, 1296.766345)"><g><path d="M 90.0625 -104.28125 L 90.0625 -209.734375 L 400.515625 -209.734375 L 400.515625 -314.015625 L 90.0625 -314.015625 L 90.0625 -732.296875 L 193.140625 -732.296875 L 193.140625 -836.578125 L 611.4375 -836.578125 L 611.4375 -625.65625 L 300.984375 -625.65625 L 300.984375 -522.5625 L 611.4375 -522.5625 L 611.4375 -104.28125 L 507.15625 -104.28125 L 507.15625 0 L 90.0625 0 Z M 90.0625 -104.28125 "/></g></g></g><g fill="#000000" fill-opacity="1"><g transform="translate(714.249571, 1296.766345)"><g><path d="M 87.6875 -104.28125 L 87.6875 -836.578125 L 298.609375 -836.578125 L 298.609375 -522.5625 L 604.328125 -522.5625 L 604.328125 -836.578125 L 815.25 -836.578125 L 815.25 0 L 604.328125 0 L 604.328125 -314.015625 L 298.609375 -314.015625 L 298.609375 0 L 87.6875 0 Z M 87.6875 -104.28125 "/></g></g></g><g fill="#000000" fill-opacity="1"><g transform="translate(1620.742753, 1296.766345)"><g><path d="M 394.59375 -522.5625 L 497.6875 -522.5625 L 497.6875 -625.65625 L 295.046875 -625.65625 L 295.046875 -522.5625 Z M 84.125 -104.28125 L 84.125 -836.578125 L 605.515625 -836.578125 L 605.515625 -732.296875 L 707.421875 -732.296875 L 707.421875 -314.015625 L 605.515625 -314.015625 L 605.515625 -209.734375 L 707.421875 -209.734375 L 707.421875 -105.453125 L 811.6875 -105.453125 L 811.6875 0 L 600.765625 0 L 600.765625 -104.28125 L 497.6875 -104.28125 L 497.6875 -208.546875 L 394.59375 -208.546875 L 394.59375 -314.015625 L 295.046875 -314.015625 L 295.046875 0 L 84.125 0 Z M 84.125 -104.28125 "/></g></g></g></g></g></g></g></g></svg>