<svg xmlns="http://www.w3.org/2000/svg" xmlns:xlink="http://www.w3.org/1999/xlink" width="2070" zoomAndPan="magnify" viewBox="0 0 1552.5 329.999987" height="440" preserveAspectRatio="xMidYMid meet" version="1.0"><defs><g/><clipPath id="05452f2217"><rect x="0" width="494" y="0" height="197"/></clipPath><clipPath id="a985cf4ba4"><rect x="0" width="163" y="0" height="169"/></clipPath></defs><g transform="matrix(1, 0, 0, 1, 64, 66)"><g clip-path="url(#05452f2217)"><g fill="#000000" fill-opacity="1"><g transform="translate(1.646188, 157.537537)"><g><path d="M 146.0625 -95.65625 L 62.359375 -95.65625 L 62.359375 -80.75 L 146.0625 -80.75 L 146.0625 0 L 9.203125 0 L 9.203125 -33.109375 L 112.953125 -33.109375 L 112.953125 -47.640625 L 9.203125 -47.640625 L 9.203125 -80.75 L 29.25 -80.75 L 29.25 -95.65625 L 9.203125 -95.65625 L 9.203125 -128.765625 L 29.25 -128.765625 L 29.25 -149.734375 L 62.359375 -149.734375 L 62.359375 -128.765625 L 146.0625 -128.765625 Z M 146.0625 -95.65625 "/></g></g></g><g fill="#000000" fill-opacity="1"><g transform="translate(148.628174, 157.537537)"><g/></g></g><g fill="#000000" fill-opacity="1"><g transform="translate(212.083059, 157.537537)"><g/></g></g><g fill="#000000" fill-opacity="1"><g transform="translate(275.537943, 157.537537)"><g/></g></g><g fill="#000000" fill-opacity="1"><g transform="translate(339.014035, 157.537537)"><g><path d="M 115.703125 -40.46875 C 119.503906 -27.957031 124.6875 -18.082031 131.25 -10.84375 C 137.8125 -3.613281 144.40625 0 151.03125 0 L 151.03125 33.109375 C 140.238281 33.109375 130.210938 29.976562 120.953125 23.71875 C 111.691406 17.46875 103.65625 8.828125 96.84375 -2.203125 C 90.039062 -13.242188 84.921875 -26 81.484375 -40.46875 L 57.9375 -40.46875 L 57.9375 0 L 24.828125 0 L 24.828125 -40.46875 L 9.203125 -40.46875 L 9.203125 -128.765625 L 143.296875 -128.765625 L 143.296875 -40.46875 Z M 42.3125 -95.65625 L 42.3125 -73.578125 L 110.1875 -73.578125 L 110.1875 -95.65625 Z M 42.3125 -95.65625 "/></g></g></g></g></g><g transform="matrix(1, 0, 0, 1, 226, 80)"><g clip-path="url(#a985cf4ba4)"><g fill="#b62f35" fill-opacity="1"><g transform="translate(1.625924, 133.555317)"><g><path d="M 57.203125 -56.546875 L 51.296875 -68.71875 C 49.972656 -71.894531 48.109375 -77.484375 45.703125 -85.484375 C 37.148438 -83.078125 29.421875 -79.625 22.515625 -75.125 C 24.597656 -67.894531 26.460938 -62.414062 28.109375 -58.6875 C 29.203125 -55.625 31.394531 -51.019531 34.6875 -44.875 C 43.019531 -48.050781 50.523438 -51.941406 57.203125 -56.546875 Z M 126.265625 -90.25 C 120.992188 -79.726562 113.484375 -69.535156 103.734375 -59.671875 C 111.296875 -54.960938 119.023438 -51.617188 126.921875 -49.640625 C 136.890625 -61.367188 144.394531 -72.601562 149.4375 -83.34375 C 142.207031 -86.53125 134.484375 -88.832031 126.265625 -90.25 Z M 158.484375 -45.203125 C 137.546875 -45.753906 116.335938 -45.484375 94.859375 -44.390625 C 94.640625 -60.828125 94.691406 -76.609375 95.015625 -91.734375 C 112.878906 -92.941406 131.675781 -94.476562 151.40625 -96.34375 C 152.726562 -104.125 153.113281 -111.738281 152.5625 -119.1875 C 108.175781 -113.488281 63.019531 -111.40625 17.09375 -112.9375 C 15.882812 -106.695312 15.117188 -99.847656 14.796875 -92.390625 C 33.210938 -91.296875 52.832031 -90.859375 73.65625 -91.078125 C 72.445312 -75.953125 71.625 -60.0625 71.1875 -43.40625 C 51.238281 -42.300781 31.015625 -40.65625 10.515625 -38.46875 C 9.203125 -32.875 8.4375 -26.1875 8.21875 -18.40625 C 30.03125 -20.269531 50.910156 -21.476562 70.859375 -22.03125 C 70.640625 -7.5625 70.859375 7.507812 71.515625 23.1875 C 79.734375 25.476562 88.226562 25.859375 97 24.328125 C 96.125 7.992188 95.570312 -7.675781 95.34375 -22.6875 C 118.144531 -23.238281 139.191406 -22.910156 158.484375 -21.703125 C 159.578125 -29.148438 159.578125 -36.984375 158.484375 -45.203125 Z M 158.484375 -45.203125 "/></g></g></g></g></g><g fill="#000000" fill-opacity="1"><g transform="translate(634.191947, 232.888301)"><g><path d="M 53.71875 0.1875 C 45.707031 0.1875 38.664062 -0.96875 32.59375 -3.28125 C 27.738281 -5.21875 22.757812 -8.429688 17.65625 -12.921875 C 11.832031 -18.265625 8.132812 -24.882812 6.5625 -32.78125 C 5.945312 -35.320312 5.640625 -37.867188 5.640625 -40.421875 C 5.523438 -41.273438 5.523438 -42.125 5.640625 -42.96875 L 5.640625 -44.25 L 30.59375 -43.890625 L 30.59375 -44.0625 C 30.59375 -39.570312 31.5625 -35.867188 33.5 -32.953125 C 37.144531 -27.492188 43.882812 -24.765625 53.71875 -24.765625 C 69.5 -24.765625 77.390625 -28.46875 77.390625 -35.875 C 77.390625 -43.03125 69.253906 -47.519531 52.984375 -49.34375 C 43.640625 -50.4375 35.628906 -52.378906 28.953125 -55.171875 C 22.765625 -57.722656 17.726562 -61.125 13.84375 -65.375 C 8.375 -71.4375 5.640625 -78.476562 5.640625 -86.5 C 5.640625 -91.46875 6.550781 -96.140625 8.375 -100.515625 C 9.707031 -103.796875 11.53125 -106.769531 13.84375 -109.4375 C 22.332031 -119.03125 35.804688 -123.828125 54.265625 -123.828125 C 65.304688 -123.828125 74.65625 -121.640625 82.3125 -117.265625 C 88.132812 -113.992188 92.867188 -109.625 96.515625 -104.15625 C 99.179688 -100.03125 101.0625 -95.296875 102.15625 -89.953125 C 102.519531 -88.128906 102.765625 -86.304688 102.890625 -84.484375 C 103.003906 -83.878906 103.0625 -83.273438 103.0625 -82.671875 L 103.0625 -81.578125 L 78.125 -81.578125 L 78.125 -81.390625 C 78.238281 -85.035156 77.328125 -88.132812 75.390625 -90.6875 C 71.503906 -96.144531 64.460938 -98.875 54.265625 -98.875 C 48.078125 -98.875 42.976562 -98.085938 38.96875 -96.515625 C 33.988281 -94.566406 31.5 -91.773438 31.5 -88.140625 C 31.5 -80.609375 39.570312 -75.929688 55.71875 -74.109375 C 73.925781 -72.046875 87.035156 -66.398438 95.046875 -57.171875 C 100.390625 -50.859375 103.0625 -43.757812 103.0625 -35.875 L 103.0625 -34.234375 C 103.0625 -33.503906 103.003906 -32.773438 102.890625 -32.046875 C 102.765625 -30.109375 102.519531 -28.285156 102.15625 -26.578125 C 100.9375 -21.722656 98.628906 -17.414062 95.234375 -13.65625 C 91.222656 -9.164062 85.820312 -5.707031 79.03125 -3.28125 C 72.226562 -0.96875 63.789062 0.1875 53.71875 0.1875 Z M 53.71875 0.1875 "/></g></g></g><g fill="#000000" fill-opacity="1"><g transform="translate(742.715131, 232.888301)"><g><path d="M 30.953125 -79.75 C 33.015625 -85.582031 36.472656 -89.648438 41.328125 -91.953125 C 46.066406 -94.265625 53.171875 -95.421875 62.640625 -95.421875 L 62.640625 -69.375 C 53.410156 -69.375 45.703125 -66.21875 39.515625 -59.90625 C 33.804688 -54.320312 30.953125 -48.191406 30.953125 -41.515625 L 30.953125 0 L 5.46875 0 L 5.46875 -93.78125 L 30.953125 -93.78125 Z M 30.953125 -79.75 "/></g></g></g><g fill="#000000" fill-opacity="1"><g transform="translate(803.71371, 232.888301)"><g><path d="M 95.78125 -42.796875 C 95.90625 -40.242188 95.90625 -38.722656 95.78125 -38.234375 L 27.3125 -38.421875 C 28.28125 -35.628906 30.039062 -32.957031 32.59375 -30.40625 C 37.332031 -25.914062 42.796875 -23.671875 48.984375 -23.671875 C 55.535156 -23.910156 61 -26.21875 65.375 -30.59375 L 66.09375 -31.3125 L 89.765625 -23.859375 C 84.546875 -15.722656 79.085938 -9.894531 73.390625 -6.375 C 66.953125 -2.25 58.878906 -0.125 49.171875 0 C 36.296875 0.125 25.25 -4.363281 16.03125 -13.46875 C 6.800781 -22.570312 2.125 -33.617188 2 -46.609375 C 1.882812 -59.484375 6.378906 -70.53125 15.484375 -79.75 C 24.585938 -88.976562 35.632812 -93.65625 48.625 -93.78125 C 61.488281 -93.894531 72.535156 -89.398438 81.765625 -80.296875 C 90.984375 -71.191406 95.65625 -60.144531 95.78125 -47.15625 Z M 48.796875 -69.921875 C 42.367188 -69.921875 36.90625 -67.675781 32.40625 -63.1875 C 30.101562 -60.632812 28.46875 -58.082031 27.5 -55.53125 L 70.28125 -55.53125 C 69.3125 -58.082031 67.613281 -60.695312 65.1875 -63.375 C 60.570312 -67.738281 55.109375 -69.921875 48.796875 -69.921875 Z M 48.796875 -69.921875 "/></g></g></g><g fill="#000000" fill-opacity="1"><g transform="translate(902.586385, 232.888301)"><g><path d="M 95.78125 -42.796875 C 95.90625 -40.242188 95.90625 -38.722656 95.78125 -38.234375 L 27.3125 -38.421875 C 28.28125 -35.628906 30.039062 -32.957031 32.59375 -30.40625 C 37.332031 -25.914062 42.796875 -23.671875 48.984375 -23.671875 C 55.535156 -23.910156 61 -26.21875 65.375 -30.59375 L 66.09375 -31.3125 L 89.765625 -23.859375 C 84.546875 -15.722656 79.085938 -9.894531 73.390625 -6.375 C 66.953125 -2.25 58.878906 -0.125 49.171875 0 C 36.296875 0.125 25.25 -4.363281 16.03125 -13.46875 C 6.800781 -22.570312 2.125 -33.617188 2 -46.609375 C 1.882812 -59.484375 6.378906 -70.53125 15.484375 -79.75 C 24.585938 -88.976562 35.632812 -93.65625 48.625 -93.78125 C 61.488281 -93.894531 72.535156 -89.398438 81.765625 -80.296875 C 90.984375 -71.191406 95.65625 -60.144531 95.78125 -47.15625 Z M 48.796875 -69.921875 C 42.367188 -69.921875 36.90625 -67.675781 32.40625 -63.1875 C 30.101562 -60.632812 28.46875 -58.082031 27.5 -55.53125 L 70.28125 -55.53125 C 69.3125 -58.082031 67.613281 -60.695312 65.1875 -63.375 C 60.570312 -67.738281 55.109375 -69.921875 48.796875 -69.921875 Z M 48.796875 -69.921875 "/></g></g></g><g fill="#000000" fill-opacity="1"><g transform="translate(1000.366512, 232.888301)"><g><path d="M 101.0625 0 L 77.390625 0 L 77.390625 -46.25 L 77.203125 -46.25 L 77.203125 -46.796875 C 77.203125 -53.109375 74.957031 -58.507812 70.46875 -63 C 65.976562 -67.488281 60.515625 -69.734375 54.078125 -69.734375 C 47.765625 -69.734375 42.300781 -67.429688 37.6875 -62.828125 C 33.082031 -58.210938 30.898438 -52.75 31.140625 -46.4375 L 31.140625 -46.25 L 30.953125 -46.25 L 30.953125 0 L 5.46875 0 L 5.46875 -118.359375 L 30.953125 -118.359375 L 30.953125 -81.9375 C 36.660156 -88.738281 44.3125 -92.566406 53.90625 -93.421875 C 67.257812 -94.503906 78.304688 -91.039062 87.046875 -83.03125 C 96.390625 -74.414062 101.0625 -62.335938 101.0625 -46.796875 Z M 101.0625 0 "/></g></g></g><g fill="#000000" fill-opacity="1"><g transform="translate(1106.886721, 232.888301)"><g><path d="M 72.84375 -94.140625 L 98.328125 -94.140625 L 98.328125 0 L 72.84375 0 L 72.84375 -10.5625 C 67.613281 -3.757812 59.722656 -0.359375 49.171875 -0.359375 C 36.296875 -0.242188 25.25 -4.738281 16.03125 -13.84375 C 6.800781 -22.945312 2.125 -33.992188 2 -46.984375 C 1.882812 -59.847656 6.378906 -70.894531 15.484375 -80.125 C 24.585938 -89.34375 35.632812 -94.015625 48.625 -94.140625 C 59.300781 -94.140625 67.375 -90.679688 72.84375 -83.765625 Z M 65.1875 -30.953125 C 69.675781 -35.441406 71.921875 -40.90625 71.921875 -47.34375 C 71.921875 -53.894531 69.613281 -59.359375 65 -63.734375 C 60.394531 -68.347656 54.992188 -70.53125 48.796875 -70.28125 C 42.367188 -70.28125 36.90625 -68.035156 32.40625 -63.546875 C 27.914062 -59.054688 25.671875 -53.59375 25.671875 -47.15625 C 25.671875 -40.84375 27.976562 -35.382812 32.59375 -30.78125 C 37.082031 -26.28125 42.546875 -24.03125 48.984375 -24.03125 C 55.535156 -24.28125 60.9375 -26.585938 65.1875 -30.953125 Z M 65.1875 -30.953125 "/></g></g></g><g fill="#000000" fill-opacity="1"><g transform="translate(1210.675694, 232.888301)"><g><path d="M 30.953125 -79.75 C 33.015625 -85.582031 36.472656 -89.648438 41.328125 -91.953125 C 46.066406 -94.265625 53.171875 -95.421875 62.640625 -95.421875 L 62.640625 -69.375 C 53.410156 -69.375 45.703125 -66.21875 39.515625 -59.90625 C 33.804688 -54.320312 30.953125 -48.191406 30.953125 -41.515625 L 30.953125 0 L 5.46875 0 L 5.46875 -93.78125 L 30.953125 -93.78125 Z M 30.953125 -79.75 "/></g></g></g><g fill="#000000" fill-opacity="1"><g transform="translate(1276.044531, 232.888301)"><g><path d="M 30.78125 -126.921875 L 30.78125 -105.4375 L 5.46875 -105.4375 L 5.46875 -126.921875 Z M 30.953125 -93.59375 L 30.953125 0 L 5.46875 0 L 5.46875 -93.59375 Z M 30.953125 -93.59375 "/></g></g></g><g fill="#000000" fill-opacity="1"><g transform="translate(1312.461679, 232.888301)"><g/></g></g><g fill="#000000" fill-opacity="1"><g transform="translate(1359.804005, 232.888301)"><g><path d="M 104.34375 -77.9375 C 104.34375 -70.289062 102.398438 -63.1875 98.515625 -56.625 C 93.773438 -48.863281 87.097656 -43.460938 78.484375 -40.421875 L 103.96875 0 L 72.109375 0 L 47.34375 -37.6875 L 33.875 -37.6875 L 33.875 0 L 5.46875 0 L 5.46875 -118.359375 L 62.09375 -118.359375 C 75.570312 -118.359375 86.253906 -113.925781 94.140625 -105.0625 C 100.941406 -97.300781 104.34375 -88.257812 104.34375 -77.9375 Z M 33.875 -92.875 L 33.875 -63.1875 L 61.90625 -63.1875 C 65.789062 -63.1875 68.890625 -63.734375 71.203125 -64.828125 C 73.140625 -65.921875 74.535156 -66.953125 75.390625 -67.921875 C 76.597656 -69.378906 77.507812 -71.078125 78.125 -73.015625 C 78.601562 -74.710938 78.84375 -76.351562 78.84375 -77.9375 C 78.84375 -79.632812 78.601562 -81.332031 78.125 -83.03125 C 77.394531 -84.976562 76.359375 -86.679688 75.015625 -88.140625 C 72.347656 -91.296875 68.039062 -92.875 62.09375 -92.875 Z M 33.875 -92.875 "/></g></g></g></svg>