<svg xmlns="http://www.w3.org/2000/svg" xmlns:xlink="http://www.w3.org/1999/xlink" width="500" zoomAndPan="magnify" viewBox="0 0 375 374.999991" height="500" preserveAspectRatio="xMidYMid meet" version="1.0"><defs><g/><clipPath id="7d60ef0706"><rect x="0" width="301" y="0" height="119"/></clipPath></defs><g transform="matrix(1, 0, 0, 1, 38, 128)"><g clip-path="url(#7d60ef0706)"><g fill="#000000" fill-opacity="1"><g transform="translate(0.964577, 95.308418)"><g><path d="M 88.828125 -58.171875 L 37.921875 -58.171875 L 37.921875 -49.109375 L 88.828125 -49.109375 L 88.828125 0 L 5.59375 0 L 5.59375 -20.140625 L 68.6875 -20.140625 L 68.6875 -28.96875 L 5.59375 -28.96875 L 5.59375 -49.109375 L 17.78125 -49.109375 L 17.78125 -58.171875 L 5.59375 -58.171875 L 5.59375 -78.3125 L 17.78125 -78.3125 L 17.78125 -91.0625 L 37.921875 -91.0625 L 37.921875 -78.3125 L 88.828125 -78.3125 Z M 88.828125 -58.171875 "/></g></g></g><g fill="#000000" fill-opacity="1"><g transform="translate(90.35725, 95.308418)"><g/></g></g><g fill="#000000" fill-opacity="1"><g transform="translate(128.949747, 95.308418)"><g/></g></g><g fill="#000000" fill-opacity="1"><g transform="translate(167.542243, 95.308418)"><g/></g></g><g fill="#000000" fill-opacity="1"><g transform="translate(206.147638, 95.308418)"><g><path d="M 70.375 -24.609375 C 72.6875 -17.003906 75.835938 -11 79.828125 -6.59375 C 83.816406 -2.195312 87.820312 0 91.84375 0 L 91.84375 20.140625 C 85.28125 20.140625 79.179688 18.234375 73.546875 14.421875 C 67.921875 10.617188 63.035156 5.363281 58.890625 -1.34375 C 54.753906 -8.050781 51.644531 -15.804688 49.5625 -24.609375 L 35.234375 -24.609375 L 35.234375 0 L 15.109375 0 L 15.109375 -24.609375 L 5.59375 -24.609375 L 5.59375 -78.3125 L 87.15625 -78.3125 L 87.15625 -24.609375 Z M 25.734375 -58.171875 L 25.734375 -44.75 L 67.015625 -44.75 L 67.015625 -58.171875 Z M 25.734375 -58.171875 "/></g></g></g><g fill="#b62f35" fill-opacity="1"><g transform="translate(99.478702, 89.237357)"><g><path d="M 34.796875 -34.390625 L 31.203125 -41.796875 C 30.398438 -43.734375 29.265625 -47.132812 27.796875 -52 C 22.597656 -50.53125 17.898438 -48.429688 13.703125 -45.703125 C 14.960938 -41.296875 16.09375 -37.960938 17.09375 -35.703125 C 17.757812 -33.828125 19.09375 -31.023438 21.09375 -27.296875 C 26.164062 -29.234375 30.734375 -31.597656 34.796875 -34.390625 Z M 76.796875 -54.890625 C 73.597656 -48.492188 69.03125 -42.296875 63.09375 -36.296875 C 67.695312 -33.429688 72.394531 -31.398438 77.1875 -30.203125 C 83.257812 -37.328125 87.828125 -44.160156 90.890625 -50.703125 C 86.492188 -52.628906 81.796875 -54.023438 76.796875 -54.890625 Z M 96.390625 -27.5 C 83.660156 -27.832031 70.757812 -27.664062 57.6875 -27 C 57.5625 -37 57.597656 -46.597656 57.796875 -55.796875 C 68.660156 -56.523438 80.09375 -57.457031 92.09375 -58.59375 C 92.894531 -63.320312 93.128906 -67.957031 92.796875 -72.5 C 65.796875 -69.03125 38.332031 -67.757812 10.40625 -68.6875 C 9.664062 -64.894531 9.195312 -60.726562 9 -56.1875 C 20.195312 -55.519531 32.128906 -55.253906 44.796875 -55.390625 C 44.066406 -46.191406 43.566406 -36.523438 43.296875 -26.390625 C 31.160156 -25.722656 18.863281 -24.722656 6.40625 -23.390625 C 5.601562 -19.992188 5.132812 -15.929688 5 -11.203125 C 18.257812 -12.335938 30.957031 -13.070312 43.09375 -13.40625 C 42.957031 -4.601562 43.09375 4.5625 43.5 14.09375 C 48.5 15.5 53.664062 15.734375 59 14.796875 C 58.457031 4.867188 58.125 -4.660156 58 -13.796875 C 71.863281 -14.128906 84.660156 -13.929688 96.390625 -13.203125 C 97.054688 -17.734375 97.054688 -22.5 96.390625 -27.5 Z M 96.390625 -27.5 "/></g></g></g></g></g></svg>