<svg xmlns="http://www.w3.org/2000/svg" xmlns:xlink="http://www.w3.org/1999/xlink" width="500" zoomAndPan="magnify" viewBox="0 0 375 374.999991" height="500" preserveAspectRatio="xMidYMid meet" version="1.0"><defs><g/><clipPath id="fd3b62816d"><path d="M 227 21.496094 L 261 21.496094 L 261 56 L 227 56 Z M 227 21.496094 " clip-rule="nonzero"/></clipPath><clipPath id="ebaed5bf79"><path d="M 323 231 L 357.585938 231 L 357.585938 266 L 323 266 Z M 323 231 " clip-rule="nonzero"/></clipPath><clipPath id="921df5c4ac"><path d="M 113 328 L 148 328 L 148 361.996094 L 113 361.996094 Z M 113 328 " clip-rule="nonzero"/></clipPath><clipPath id="d0a0276dee"><path d="M 17.085938 118 L 51 118 L 51 153 L 17.085938 153 Z M 17.085938 118 " clip-rule="nonzero"/></clipPath><clipPath id="7c2ba70ae8"><path d="M 113 21.496094 L 148 21.496094 L 148 56 L 113 56 Z M 113 21.496094 " clip-rule="nonzero"/></clipPath><clipPath id="2af1d021d7"><path d="M 323 118 L 357.585938 118 L 357.585938 153 L 323 153 Z M 323 118 " clip-rule="nonzero"/></clipPath><clipPath id="97faa0c9a0"><path d="M 227 328 L 261 328 L 261 361.996094 L 227 361.996094 Z M 227 328 " clip-rule="nonzero"/></clipPath><clipPath id="ca3df32534"><path d="M 17.085938 231 L 51 231 L 51 266 L 17.085938 266 Z M 17.085938 231 " clip-rule="nonzero"/></clipPath><clipPath id="43839e345b"><path d="M 170 21.496094 L 205 21.496094 L 205 56 L 170 56 Z M 170 21.496094 " clip-rule="nonzero"/></clipPath><clipPath id="bf7dbe0032"><path d="M 323 174 L 357.585938 174 L 357.585938 209 L 323 209 Z M 323 174 " clip-rule="nonzero"/></clipPath><clipPath id="b727024761"><path d="M 170 328 L 205 328 L 205 361.996094 L 170 361.996094 Z M 170 328 " clip-rule="nonzero"/></clipPath><clipPath id="6843acf7e4"><path d="M 17.085938 174 L 51 174 L 51 209 L 17.085938 209 Z M 17.085938 174 " clip-rule="nonzero"/></clipPath></defs><path fill="#d26caa" d="M 201.839844 241.828125 C 200.429688 242.445312 198.78125 241.800781 198.164062 240.390625 C 197.546875 238.980469 198.1875 237.332031 199.597656 236.714844 L 233.699219 221.753906 C 235.109375 221.136719 236.757812 221.777344 237.378906 223.191406 C 237.996094 224.601562 237.355469 226.25 235.941406 226.867188 Z M 138.792969 226.867188 C 137.382812 226.25 136.742188 224.601562 137.359375 223.191406 C 137.976562 221.777344 139.625 221.136719 141.035156 221.753906 L 175.136719 236.714844 C 176.550781 237.332031 177.191406 238.980469 176.574219 240.390625 C 175.953125 241.800781 174.304688 242.445312 172.894531 241.828125 Z M 138.792969 226.867188 " fill-opacity="1" fill-rule="evenodd"/><path fill="#fde266" d="M 198.429688 235.234375 C 197.496094 236.460938 195.742188 236.695312 194.519531 235.761719 C 193.292969 234.824219 193.058594 233.074219 193.992188 231.847656 L 237.285156 175.128906 C 238.21875 173.90625 239.972656 173.667969 241.195312 174.605469 C 242.417969 175.539062 242.65625 177.292969 241.71875 178.515625 Z M 133.160156 178.402344 C 132.226562 177.175781 132.46875 175.421875 133.695312 174.488281 C 134.921875 173.558594 136.671875 173.796875 137.605469 175.023438 L 180.773438 231.832031 C 181.703125 233.058594 181.464844 234.8125 180.238281 235.746094 C 179.011719 236.675781 177.257812 236.4375 176.328125 235.210938 Z M 133.160156 178.402344 " fill-opacity="1" fill-rule="evenodd"/><path fill="#8fb4e0" d="M 199.597656 146.847656 C 198.1875 146.226562 197.546875 144.578125 198.164062 143.167969 C 198.78125 141.757812 200.429688 141.113281 201.839844 141.734375 L 235.941406 156.695312 C 237.355469 157.3125 237.996094 158.960938 237.378906 160.371094 C 236.757812 161.78125 235.109375 162.425781 233.699219 161.804688 Z M 141.035156 161.804688 C 139.625 162.425781 137.976562 161.78125 137.359375 160.371094 C 136.742188 158.960938 137.382812 157.3125 138.792969 156.695312 L 172.894531 141.734375 C 174.304688 141.113281 175.953125 141.757812 176.574219 143.167969 C 177.191406 144.578125 176.550781 146.226562 175.136719 146.847656 Z M 141.035156 161.804688 " fill-opacity="1" fill-rule="evenodd"/><path fill="#d26caa" d="M 193.992188 151.710938 C 193.058594 150.488281 193.292969 148.734375 194.519531 147.800781 C 195.742188 146.867188 197.496094 147.101562 198.429688 148.324219 L 241.71875 205.042969 C 242.65625 206.269531 242.417969 208.019531 241.195312 208.957031 C 239.972656 209.890625 238.21875 209.65625 237.285156 208.429688 Z M 137.605469 208.539062 C 136.671875 209.765625 134.921875 210.003906 133.695312 209.070312 C 132.46875 208.140625 132.226562 206.386719 133.160156 205.160156 L 176.328125 148.351562 C 177.257812 147.125 179.011719 146.882812 180.238281 147.816406 C 181.464844 148.746094 181.703125 150.5 180.773438 151.726562 Z M 137.605469 208.539062 " fill-opacity="1" fill-rule="evenodd"/><path fill="#9983bd" d="M 199.597656 200.191406 C 198.1875 199.574219 197.546875 197.925781 198.164062 196.515625 C 198.78125 195.105469 200.429688 194.460938 201.839844 195.082031 L 235.941406 210.039062 C 237.355469 210.660156 237.996094 212.308594 237.378906 213.71875 C 236.757812 215.128906 235.109375 215.773438 233.699219 215.152344 Z M 138.792969 173.519531 C 137.382812 172.902344 136.742188 171.253906 137.359375 169.84375 C 137.976562 168.429688 139.625 167.789062 141.035156 168.40625 L 175.136719 183.367188 C 176.550781 183.984375 177.191406 185.632812 176.574219 187.042969 C 175.953125 188.453125 174.304688 189.097656 172.894531 188.480469 Z M 138.792969 173.519531 " fill-opacity="1" fill-rule="evenodd"/><path fill="#d26caa" d="M 141.035156 215.152344 C 139.625 215.773438 137.976562 215.128906 137.359375 213.71875 C 136.742188 212.308594 137.382812 210.660156 138.792969 210.039062 L 172.894531 195.082031 C 174.304688 194.460938 175.953125 195.105469 176.574219 196.515625 C 177.191406 197.925781 176.550781 199.574219 175.136719 200.191406 Z M 201.839844 188.480469 C 200.429688 189.097656 198.78125 188.453125 198.164062 187.042969 C 197.546875 185.632812 198.1875 183.984375 199.597656 183.367188 L 233.699219 168.40625 C 235.109375 167.789062 236.757812 168.429688 237.378906 169.84375 C 237.996094 171.253906 237.355469 172.902344 235.941406 173.519531 Z M 201.839844 188.480469 " fill-opacity="1" fill-rule="evenodd"/><path fill="#fde266" d="M 126.5625 147.738281 C 136.148438 147.738281 143.933594 155.519531 143.933594 165.105469 C 143.933594 174.691406 136.148438 182.476562 126.5625 182.476562 C 116.976562 182.476562 109.195312 174.691406 109.195312 165.105469 C 109.195312 155.519531 116.976562 147.738281 126.5625 147.738281 Z M 126.5625 153.320312 C 120.058594 153.320312 114.777344 158.601562 114.777344 165.105469 C 114.777344 171.613281 120.058594 176.894531 126.5625 176.894531 C 133.070312 176.894531 138.351562 171.613281 138.351562 165.105469 C 138.351562 158.601562 133.070312 153.320312 126.5625 153.320312 Z M 126.5625 153.320312 " fill-opacity="1" fill-rule="evenodd"/><path fill="#dd6776" d="M 126.5625 201.085938 C 136.148438 201.085938 143.933594 208.867188 143.933594 218.453125 C 143.933594 228.039062 136.148438 235.824219 126.5625 235.824219 C 116.976562 235.824219 109.195312 228.039062 109.195312 218.453125 C 109.195312 208.867188 116.976562 201.085938 126.5625 201.085938 Z M 126.5625 206.667969 C 120.058594 206.667969 114.777344 211.949219 114.777344 218.453125 C 114.777344 224.957031 120.058594 230.238281 126.5625 230.238281 C 133.070312 230.238281 138.351562 224.957031 138.351562 218.453125 C 138.351562 211.949219 133.070312 206.667969 126.5625 206.667969 Z M 126.5625 206.667969 " fill-opacity="1" fill-rule="evenodd"/><path fill="#f285b1" d="M 187.367188 121.0625 C 196.953125 121.0625 204.738281 128.847656 204.738281 138.433594 C 204.738281 148.019531 196.953125 155.800781 187.367188 155.800781 C 177.78125 155.800781 170 148.019531 170 138.433594 C 170 128.847656 177.78125 121.0625 187.367188 121.0625 Z M 187.367188 126.644531 C 180.863281 126.644531 175.582031 131.929688 175.582031 138.433594 C 175.582031 144.9375 180.863281 150.21875 187.367188 150.21875 C 193.875 150.21875 199.15625 144.9375 199.15625 138.433594 C 199.15625 131.929688 193.875 126.644531 187.367188 126.644531 Z M 187.367188 126.644531 " fill-opacity="1" fill-rule="evenodd"/><path fill="#dd6776" d="M 187.367188 174.410156 C 196.953125 174.410156 204.738281 182.195312 204.738281 191.78125 C 204.738281 201.367188 196.953125 209.148438 187.367188 209.148438 C 177.78125 209.148438 170 201.367188 170 191.78125 C 170 182.195312 177.78125 174.410156 187.367188 174.410156 Z M 187.367188 179.992188 C 180.863281 179.992188 175.582031 185.273438 175.582031 191.78125 C 175.582031 198.285156 180.863281 203.566406 187.367188 203.566406 C 193.875 203.566406 199.15625 198.285156 199.15625 191.78125 C 199.15625 185.273438 193.875 179.992188 187.367188 179.992188 Z M 187.367188 179.992188 " fill-opacity="1" fill-rule="evenodd"/><path fill="#8fb4e0" d="M 187.367188 227.757812 C 196.953125 227.757812 204.738281 235.542969 204.738281 245.128906 C 204.738281 254.714844 196.953125 262.496094 187.367188 262.496094 C 177.78125 262.496094 170 254.714844 170 245.128906 C 170 235.542969 177.78125 227.757812 187.367188 227.757812 Z M 187.367188 233.339844 C 180.863281 233.339844 175.582031 238.621094 175.582031 245.128906 C 175.582031 251.632812 180.863281 256.914062 187.367188 256.914062 C 193.875 256.914062 199.15625 251.632812 199.15625 245.128906 C 199.15625 238.621094 193.875 233.339844 187.367188 233.339844 Z M 187.367188 233.339844 " fill-opacity="1" fill-rule="evenodd"/><path fill="#94d3bf" d="M 248.171875 147.738281 C 257.757812 147.738281 265.542969 155.519531 265.542969 165.105469 C 265.542969 174.691406 257.757812 182.476562 248.171875 182.476562 C 238.585938 182.476562 230.804688 174.691406 230.804688 165.105469 C 230.804688 155.519531 238.585938 147.738281 248.171875 147.738281 Z M 248.171875 153.320312 C 241.667969 153.320312 236.386719 158.601562 236.386719 165.105469 C 236.386719 171.613281 241.667969 176.894531 248.171875 176.894531 C 254.679688 176.894531 259.960938 171.613281 259.960938 165.105469 C 259.960938 158.601562 254.679688 153.320312 248.171875 153.320312 Z M 248.171875 153.320312 " fill-opacity="1" fill-rule="evenodd"/><path fill="#fde266" d="M 248.171875 201.085938 C 257.757812 201.085938 265.542969 208.867188 265.542969 218.453125 C 265.542969 228.039062 257.757812 235.824219 248.171875 235.824219 C 238.585938 235.824219 230.804688 228.039062 230.804688 218.453125 C 230.804688 208.867188 238.585938 201.085938 248.171875 201.085938 Z M 248.171875 206.667969 C 241.667969 206.667969 236.386719 211.949219 236.386719 218.453125 C 236.386719 224.957031 241.667969 230.238281 248.171875 230.238281 C 254.679688 230.238281 259.960938 224.957031 259.960938 218.453125 C 259.960938 211.949219 254.679688 206.667969 248.171875 206.667969 Z M 248.171875 206.667969 " fill-opacity="1" fill-rule="evenodd"/><path fill="#ee9d7a" d="M 191.875 50.378906 C 191.875 48.839844 193.125 47.589844 194.667969 47.589844 C 196.207031 47.589844 197.457031 48.839844 197.457031 50.378906 L 197.457031 100.824219 C 197.457031 102.367188 196.207031 103.617188 194.667969 103.617188 C 193.125 103.617188 191.875 102.367188 191.875 100.824219 Z M 182.859375 100.824219 C 182.859375 102.367188 181.609375 103.617188 180.070312 103.617188 C 178.53125 103.617188 177.277344 102.367188 177.277344 100.824219 L 177.277344 50.378906 C 177.277344 48.839844 178.53125 47.589844 180.070312 47.589844 C 181.609375 47.589844 182.859375 48.839844 182.859375 50.378906 Z M 182.859375 100.824219 " fill-opacity="1" fill-rule="evenodd"/><path fill="#8fb4e0" d="M 328.769531 196.289062 C 330.308594 196.289062 331.558594 197.539062 331.558594 199.078125 C 331.558594 200.621094 330.308594 201.871094 328.769531 201.871094 L 278.320312 201.871094 C 276.78125 201.871094 275.53125 200.621094 275.53125 199.078125 C 275.53125 197.539062 276.78125 196.289062 278.320312 196.289062 Z M 278.320312 187.273438 C 276.78125 187.273438 275.53125 186.023438 275.53125 184.480469 C 275.53125 182.941406 276.78125 181.691406 278.320312 181.691406 L 328.769531 181.691406 C 330.308594 181.691406 331.558594 182.941406 331.558594 184.480469 C 331.558594 186.023438 330.308594 187.273438 328.769531 187.273438 Z M 278.320312 187.273438 " fill-opacity="1" fill-rule="evenodd"/><path fill="#f285b1" d="M 182.859375 333.179688 C 182.859375 334.722656 181.609375 335.972656 180.070312 335.972656 C 178.53125 335.972656 177.277344 334.722656 177.277344 333.179688 L 177.277344 282.734375 C 177.277344 281.195312 178.53125 279.941406 180.070312 279.941406 C 181.609375 279.941406 182.859375 281.195312 182.859375 282.734375 Z M 191.875 282.734375 C 191.875 281.195312 193.125 279.941406 194.667969 279.941406 C 196.207031 279.941406 197.457031 281.195312 197.457031 282.734375 L 197.457031 333.179688 C 197.457031 334.722656 196.207031 335.972656 194.667969 335.972656 C 193.125 335.972656 191.875 334.722656 191.875 333.179688 Z M 191.875 282.734375 " fill-opacity="1" fill-rule="evenodd"/><path fill="#94d3bf" d="M 45.96875 187.273438 C 44.425781 187.273438 43.175781 186.023438 43.175781 184.480469 C 43.175781 182.941406 44.425781 181.691406 45.96875 181.691406 L 96.414062 181.691406 C 97.953125 181.691406 99.207031 182.941406 99.207031 184.480469 C 99.207031 186.023438 97.953125 187.273438 96.414062 187.273438 Z M 96.414062 196.289062 C 97.953125 196.289062 99.207031 197.539062 99.207031 199.078125 C 99.207031 200.621094 97.953125 201.871094 96.414062 201.871094 L 45.96875 201.871094 C 44.425781 201.871094 43.175781 200.621094 43.175781 199.078125 C 43.175781 197.539062 44.425781 196.289062 45.96875 196.289062 Z M 96.414062 196.289062 " fill-opacity="1" fill-rule="evenodd"/><path fill="#9983bd" d="M 230.347656 92.839844 C 230.347656 92.839844 230.304688 91.75 230.304688 91.75 L 231.613281 90.417969 L 247.160156 74.871094 C 248.003906 74.023438 248.480469 72.878906 248.480469 71.683594 L 248.480469 50.378906 C 248.480469 48.839844 249.730469 47.589844 251.269531 47.589844 C 252.808594 47.589844 254.0625 48.839844 254.0625 50.378906 L 254.0625 71.683594 C 254.0625 74.359375 252.996094 76.925781 251.105469 78.816406 L 235.929688 93.996094 L 235.929688 100.828125 C 235.929688 102.367188 234.675781 103.617188 233.136719 103.617188 C 231.597656 103.617188 230.347656 102.367188 230.347656 100.828125 Z M 221.328125 100.824219 C 221.328125 102.367188 220.078125 103.617188 218.539062 103.617188 C 217 103.617188 215.746094 102.367188 215.746094 100.824219 L 215.746094 89.816406 C 215.746094 87.140625 216.8125 84.574219 218.703125 82.679688 L 233.882812 67.503906 L 233.882812 50.378906 C 233.882812 48.839844 235.132812 47.589844 236.671875 47.589844 C 238.214844 47.589844 239.464844 48.839844 239.464844 50.378906 L 239.464844 68.660156 C 239.464844 69.398438 239.167969 70.109375 238.644531 70.632812 L 222.652344 86.628906 C 221.804688 87.472656 221.328125 88.621094 221.328125 89.816406 Z M 221.328125 100.824219 " fill-opacity="1" fill-rule="evenodd"/><path fill="#d26caa" d="M 286.308594 237.949219 C 286.414062 236.117188 286.839844 234.132812 288.289062 235.578125 L 288.730469 236.023438 L 304.277344 251.570312 C 305.125 252.414062 306.269531 252.890625 307.464844 252.890625 L 328.769531 252.890625 C 330.308594 252.890625 331.558594 254.140625 331.558594 255.683594 C 331.558594 257.222656 330.308594 258.472656 328.769531 258.472656 L 307.464844 258.472656 C 304.789062 258.472656 302.222656 257.410156 300.332031 255.519531 L 285.152344 240.339844 L 278.320312 240.339844 C 276.78125 240.339844 275.53125 239.089844 275.53125 237.550781 C 275.53125 236.007812 276.78125 234.757812 278.320312 234.757812 L 286.308594 234.757812 Z M 278.320312 225.742188 C 276.78125 225.742188 275.53125 224.492188 275.53125 222.949219 C 275.53125 221.410156 276.78125 220.160156 278.320312 220.160156 L 289.332031 220.160156 C 292.007812 220.160156 294.574219 221.222656 296.46875 223.113281 L 311.644531 238.292969 L 328.769531 238.292969 C 330.308594 238.292969 331.558594 239.542969 331.558594 241.085938 C 331.558594 242.625 330.308594 243.875 328.769531 243.875 L 310.488281 243.875 C 309.75 243.875 309.039062 243.582031 308.515625 243.058594 L 292.519531 227.0625 C 291.675781 226.214844 290.527344 225.742188 289.332031 225.742188 Z M 278.320312 225.742188 " fill-opacity="1" fill-rule="evenodd"/><path fill="#ee9d7a" d="M 138.808594 289.566406 L 138.808594 282.734375 C 138.808594 281.191406 140.058594 279.941406 141.601562 279.941406 C 143.140625 279.941406 144.390625 281.191406 144.390625 282.734375 L 144.390625 290.722656 L 141.601562 293.511719 C 141.601562 293.511719 143.570312 292.699219 143.570312 292.699219 L 143.125 293.140625 L 127.578125 308.691406 C 126.734375 309.535156 126.257812 310.683594 126.257812 311.878906 L 126.257812 333.179688 C 126.257812 334.722656 125.007812 335.972656 123.464844 335.972656 C 121.925781 335.972656 120.675781 334.722656 120.675781 333.179688 L 120.675781 311.878906 C 120.675781 309.203125 121.738281 306.636719 123.628906 304.742188 Z M 153.40625 282.734375 C 153.40625 281.195312 154.65625 279.941406 156.199219 279.941406 C 157.738281 279.941406 158.988281 281.195312 158.988281 282.734375 L 158.988281 293.742188 C 158.988281 296.421875 157.925781 298.988281 156.035156 300.878906 L 140.855469 316.058594 L 140.855469 333.179688 C 140.855469 334.722656 139.605469 335.972656 138.066406 335.972656 C 136.523438 335.972656 135.273438 334.722656 135.273438 333.179688 L 135.273438 314.902344 C 135.273438 314.160156 135.566406 313.449219 136.089844 312.925781 L 152.085938 296.933594 C 152.933594 296.085938 153.40625 294.941406 153.40625 293.742188 Z M 153.40625 282.734375 " fill-opacity="1" fill-rule="evenodd"/><path fill="#fde266" d="M 89.585938 143.21875 L 96.414062 143.21875 C 97.957031 143.21875 99.207031 144.472656 99.207031 146.011719 C 99.207031 147.550781 97.957031 148.804688 96.414062 148.804688 L 88.429688 148.804688 C 88.429688 148.804688 87.457031 148.988281 86.449219 147.980469 L 70.457031 131.988281 C 69.613281 131.144531 68.464844 130.667969 67.269531 130.667969 L 45.96875 130.667969 C 44.425781 130.667969 43.175781 129.417969 43.175781 127.878906 C 43.175781 126.339844 44.425781 125.085938 45.96875 125.085938 L 67.269531 125.085938 C 69.945312 125.085938 72.511719 126.148438 74.40625 128.042969 Z M 96.414062 157.820312 C 97.953125 157.820312 99.207031 159.070312 99.207031 160.609375 C 99.207031 162.148438 97.953125 163.402344 96.414062 163.402344 L 85.40625 163.402344 C 82.730469 163.402344 80.164062 162.335938 78.269531 160.445312 L 63.089844 145.265625 L 45.96875 145.265625 C 44.425781 145.265625 43.175781 144.015625 43.175781 142.476562 C 43.175781 140.9375 44.425781 139.683594 45.96875 139.683594 L 64.246094 139.683594 C 64.988281 139.683594 65.699219 139.980469 66.222656 140.503906 L 82.214844 156.5 C 83.0625 157.34375 84.207031 157.820312 85.40625 157.820312 Z M 96.414062 157.820312 " fill-opacity="1" fill-rule="evenodd"/><path fill="#8fb4e0" d="M 135.273438 50.378906 C 135.273438 48.839844 136.523438 47.589844 138.066406 47.589844 C 139.605469 47.589844 140.855469 48.839844 140.855469 50.378906 C 140.855469 50.378906 140.855469 67.503906 140.855469 67.503906 L 156.035156 82.679688 C 157.925781 84.574219 158.988281 87.140625 158.988281 89.816406 L 158.988281 100.824219 C 158.988281 102.367188 157.738281 103.617188 156.199219 103.617188 C 154.65625 103.617188 153.40625 102.367188 153.40625 100.824219 L 153.40625 89.816406 C 153.40625 88.621094 152.933594 87.472656 152.085938 86.628906 L 136.089844 70.632812 C 135.566406 70.109375 135.273438 69.398438 135.273438 68.660156 Z M 144.390625 100.886719 C 144.390625 102.425781 143.140625 103.675781 141.601562 103.675781 C 140.058594 103.675781 138.808594 102.425781 138.808594 100.886719 C 138.808594 100.886719 138.808594 93.996094 138.808594 93.996094 L 123.628906 78.816406 C 121.738281 76.925781 120.675781 74.359375 120.675781 71.683594 L 120.675781 50.378906 C 120.675781 48.839844 121.925781 47.589844 123.464844 47.589844 C 125.007812 47.589844 126.257812 48.839844 126.257812 50.378906 L 126.257812 71.683594 C 126.257812 72.878906 126.734375 74.023438 127.578125 74.871094 L 143.574219 90.867188 C 144.097656 91.390625 144.390625 92.097656 144.390625 92.839844 Z M 144.390625 100.886719 " fill-opacity="1" fill-rule="evenodd"/><path fill="#9983bd" d="M 328.769531 139.683594 C 330.308594 139.683594 331.558594 140.9375 331.558594 142.476562 C 331.558594 144.015625 330.308594 145.265625 328.769531 145.265625 C 328.769531 145.265625 311.644531 145.265625 311.644531 145.265625 L 296.46875 160.445312 C 294.574219 162.335938 292.007812 163.402344 289.332031 163.402344 L 278.320312 163.402344 C 276.78125 163.402344 275.53125 162.148438 275.53125 160.609375 C 275.53125 159.070312 276.78125 157.820312 278.320312 157.820312 L 289.332031 157.820312 C 290.527344 157.820312 291.675781 157.34375 292.519531 156.5 L 308.515625 140.503906 C 309.039062 139.980469 309.75 139.683594 310.488281 139.683594 Z M 278.265625 148.804688 C 276.722656 148.804688 275.472656 147.550781 275.472656 146.011719 C 275.472656 144.472656 276.722656 143.21875 278.265625 143.21875 C 278.265625 143.21875 285.152344 143.21875 285.152344 143.21875 L 300.332031 128.042969 C 302.222656 126.148438 304.789062 125.085938 307.464844 125.085938 L 328.769531 125.085938 C 330.308594 125.085938 331.558594 126.339844 331.558594 127.878906 C 331.558594 129.417969 330.308594 130.667969 328.769531 130.667969 L 307.464844 130.667969 C 306.269531 130.667969 305.125 131.144531 304.277344 131.988281 L 288.285156 147.984375 C 287.757812 148.507812 287.050781 148.804688 286.308594 148.804688 Z M 278.265625 148.804688 " fill-opacity="1" fill-rule="evenodd"/><path fill="#fde266" d="M 239.464844 333.179688 C 239.464844 334.722656 238.214844 335.972656 236.671875 335.972656 C 235.132812 335.972656 233.882812 334.722656 233.882812 333.179688 C 233.882812 333.179688 233.882812 316.058594 233.882812 316.058594 L 218.703125 300.878906 C 216.8125 298.988281 215.746094 296.421875 215.746094 293.742188 L 215.746094 282.734375 C 215.746094 281.195312 217 279.941406 218.539062 279.941406 C 220.078125 279.941406 221.328125 281.195312 221.328125 282.734375 L 221.328125 293.742188 C 221.328125 294.941406 221.804688 296.085938 222.652344 296.933594 L 238.644531 312.925781 C 239.167969 313.449219 239.464844 314.160156 239.464844 314.902344 Z M 230.347656 282.734375 C 230.347656 281.191406 231.597656 279.941406 233.136719 279.941406 C 234.675781 279.941406 235.929688 281.191406 235.929688 282.734375 C 235.929688 282.734375 235.929688 289.566406 235.929688 289.566406 L 251.105469 304.742188 C 252.996094 306.636719 254.0625 309.203125 254.0625 311.878906 L 254.0625 333.179688 C 254.0625 334.722656 252.808594 335.972656 251.269531 335.972656 C 249.730469 335.972656 248.480469 334.722656 248.480469 333.179688 L 248.480469 311.878906 C 248.480469 310.683594 248.003906 309.535156 247.160156 308.691406 L 231.164062 292.695312 C 230.640625 292.171875 230.347656 291.460938 230.347656 290.722656 Z M 230.347656 282.734375 " fill-opacity="1" fill-rule="evenodd"/><path fill="#9983bd" d="M 45.96875 243.875 C 44.425781 243.875 43.175781 242.625 43.175781 241.085938 C 43.175781 239.542969 44.425781 238.292969 45.96875 238.292969 C 45.96875 238.292969 63.089844 238.292969 63.089844 238.292969 L 78.269531 223.113281 C 80.164062 221.222656 82.730469 220.160156 85.40625 220.160156 L 96.414062 220.160156 C 97.953125 220.160156 99.207031 221.410156 99.207031 222.949219 C 99.207031 224.492188 97.953125 225.742188 96.414062 225.742188 L 85.40625 225.742188 C 84.207031 225.742188 83.0625 226.214844 82.214844 227.0625 L 66.222656 243.058594 C 65.699219 243.582031 64.988281 243.875 64.246094 243.875 Z M 96.472656 234.757812 C 98.015625 234.757812 99.265625 236.007812 99.265625 237.546875 C 99.265625 239.089844 98.015625 240.339844 96.472656 240.339844 C 96.472656 240.339844 89.585938 240.339844 89.585938 240.339844 L 74.40625 255.519531 C 72.511719 257.410156 69.945312 258.472656 67.269531 258.472656 L 45.96875 258.472656 C 44.425781 258.472656 43.175781 257.222656 43.175781 255.683594 C 43.175781 254.140625 44.425781 252.890625 45.96875 252.890625 L 67.269531 252.890625 C 68.464844 252.890625 69.613281 252.414062 70.457031 251.570312 L 86.453125 235.574219 C 86.976562 235.050781 87.6875 234.757812 88.429688 234.757812 Z M 96.472656 234.757812 " fill-opacity="1" fill-rule="evenodd"/><g clip-path="url(#fd3b62816d)"><path fill="#fde266" d="M 243.972656 21.519531 C 253.269531 21.519531 260.820312 29.070312 260.820312 38.367188 C 260.820312 47.664062 253.269531 55.214844 243.972656 55.214844 C 234.671875 55.214844 227.125 47.664062 227.125 38.367188 C 227.125 29.070312 234.671875 21.519531 243.972656 21.519531 Z M 243.972656 27.101562 C 237.753906 27.101562 232.707031 32.148438 232.707031 38.367188 C 232.707031 44.585938 237.753906 49.632812 243.972656 49.632812 C 250.1875 49.632812 255.238281 44.585938 255.238281 38.367188 C 255.238281 32.148438 250.1875 27.101562 243.972656 27.101562 Z M 243.972656 27.101562 " fill-opacity="1" fill-rule="evenodd"/></g><g clip-path="url(#ebaed5bf79)"><path fill="#ee9d7a" d="M 357.628906 248.382812 C 357.628906 257.683594 350.082031 265.230469 340.78125 265.230469 C 331.484375 265.230469 323.933594 257.683594 323.933594 248.382812 C 323.933594 239.085938 331.484375 231.535156 340.78125 231.535156 C 350.082031 231.535156 357.628906 239.085938 357.628906 248.382812 Z M 352.046875 248.382812 C 352.046875 242.164062 347 237.117188 340.78125 237.117188 C 334.566406 237.117188 329.515625 242.164062 329.515625 248.382812 C 329.515625 254.601562 334.566406 259.648438 340.78125 259.648438 C 347 259.648438 352.046875 254.601562 352.046875 248.382812 Z M 352.046875 248.382812 " fill-opacity="1" fill-rule="evenodd"/></g><g clip-path="url(#921df5c4ac)"><path fill="#9983bd" d="M 130.765625 362.042969 C 121.46875 362.042969 113.917969 354.492188 113.917969 345.195312 C 113.917969 335.894531 121.46875 328.347656 130.765625 328.347656 C 140.0625 328.347656 147.613281 335.894531 147.613281 345.195312 C 147.613281 354.492188 140.0625 362.042969 130.765625 362.042969 Z M 130.765625 356.457031 C 136.984375 356.457031 142.03125 351.410156 142.03125 345.195312 C 142.03125 338.976562 136.984375 333.929688 130.765625 333.929688 C 124.546875 333.929688 119.5 338.976562 119.5 345.195312 C 119.5 351.410156 124.546875 356.457031 130.765625 356.457031 Z M 130.765625 356.457031 " fill-opacity="1" fill-rule="evenodd"/></g><g clip-path="url(#d0a0276dee)"><path fill="#ee9d7a" d="M 17.105469 135.175781 C 17.105469 125.878906 24.65625 118.328125 33.957031 118.328125 C 43.253906 118.328125 50.800781 125.878906 50.800781 135.175781 C 50.800781 144.476562 43.253906 152.023438 33.957031 152.023438 C 24.65625 152.023438 17.105469 144.476562 17.105469 135.175781 Z M 22.691406 135.175781 C 22.691406 141.394531 27.738281 146.441406 33.957031 146.441406 C 40.171875 146.441406 45.21875 141.394531 45.21875 135.175781 C 45.21875 128.960938 40.171875 123.910156 33.957031 123.910156 C 27.738281 123.910156 22.691406 128.960938 22.691406 135.175781 Z M 22.691406 135.175781 " fill-opacity="1" fill-rule="evenodd"/></g><g clip-path="url(#7c2ba70ae8)"><path fill="#94d3bf" d="M 130.765625 21.519531 C 140.0625 21.519531 147.613281 29.070312 147.613281 38.367188 C 147.613281 47.664062 140.0625 55.214844 130.765625 55.214844 C 121.46875 55.214844 113.917969 47.664062 113.917969 38.367188 C 113.917969 29.070312 121.46875 21.519531 130.765625 21.519531 Z M 130.765625 27.101562 C 124.546875 27.101562 119.5 32.148438 119.5 38.367188 C 119.5 44.585938 124.546875 49.632812 130.765625 49.632812 C 136.984375 49.632812 142.03125 44.585938 142.03125 38.367188 C 142.03125 32.148438 136.984375 27.101562 130.765625 27.101562 Z M 130.765625 27.101562 " fill-opacity="1" fill-rule="evenodd"/></g><g clip-path="url(#2af1d021d7)"><path fill="#f285b1" d="M 357.628906 135.175781 C 357.628906 144.476562 350.082031 152.023438 340.78125 152.023438 C 331.484375 152.023438 323.933594 144.476562 323.933594 135.175781 C 323.933594 125.878906 331.484375 118.328125 340.78125 118.328125 C 350.082031 118.328125 357.628906 125.878906 357.628906 135.175781 Z M 352.046875 135.175781 C 352.046875 128.960938 347 123.910156 340.78125 123.910156 C 334.566406 123.910156 329.515625 128.960938 329.515625 135.175781 C 329.515625 141.394531 334.566406 146.441406 340.78125 146.441406 C 347 146.441406 352.046875 141.394531 352.046875 135.175781 Z M 352.046875 135.175781 " fill-opacity="1" fill-rule="evenodd"/></g><g clip-path="url(#97faa0c9a0)"><path fill="#ee9d7a" d="M 243.972656 362.042969 C 234.671875 362.042969 227.125 354.492188 227.125 345.195312 C 227.125 335.894531 234.671875 328.347656 243.972656 328.347656 C 253.269531 328.347656 260.820312 335.894531 260.820312 345.195312 C 260.820312 354.492188 253.269531 362.042969 243.972656 362.042969 Z M 243.972656 356.457031 C 250.1875 356.457031 255.238281 351.410156 255.238281 345.195312 C 255.238281 338.976562 250.1875 333.929688 243.972656 333.929688 C 237.753906 333.929688 232.707031 338.976562 232.707031 345.195312 C 232.707031 351.410156 237.753906 356.457031 243.972656 356.457031 Z M 243.972656 356.457031 " fill-opacity="1" fill-rule="evenodd"/></g><g clip-path="url(#ca3df32534)"><path fill="#94d3bf" d="M 17.105469 248.382812 C 17.105469 239.085938 24.65625 231.535156 33.957031 231.535156 C 43.253906 231.535156 50.800781 239.085938 50.800781 248.382812 C 50.800781 257.683594 43.253906 265.230469 33.957031 265.230469 C 24.65625 265.230469 17.105469 257.683594 17.105469 248.382812 Z M 22.691406 248.382812 C 22.691406 254.601562 27.738281 259.648438 33.957031 259.648438 C 40.171875 259.648438 45.21875 254.601562 45.21875 248.382812 C 45.21875 242.164062 40.171875 237.117188 33.957031 237.117188 C 27.738281 237.117188 22.691406 242.164062 22.691406 248.382812 Z M 22.691406 248.382812 " fill-opacity="1" fill-rule="evenodd"/></g><g clip-path="url(#43839e345b)"><path fill="#f285b1" d="M 187.367188 21.519531 C 196.667969 21.519531 204.214844 29.070312 204.214844 38.367188 C 204.214844 47.664062 196.667969 55.214844 187.367188 55.214844 C 178.070312 55.214844 170.519531 47.664062 170.519531 38.367188 C 170.519531 29.070312 178.070312 21.519531 187.367188 21.519531 Z M 187.367188 27.101562 C 181.152344 27.101562 176.101562 32.148438 176.101562 38.367188 C 176.101562 44.585938 181.152344 49.632812 187.367188 49.632812 C 193.585938 49.632812 198.632812 44.585938 198.632812 38.367188 C 198.632812 32.148438 193.585938 27.101562 187.367188 27.101562 Z M 187.367188 27.101562 " fill-opacity="1" fill-rule="evenodd"/></g><g clip-path="url(#bf7dbe0032)"><path fill="#dd6776" d="M 357.628906 191.78125 C 357.628906 201.078125 350.082031 208.628906 340.78125 208.628906 C 331.484375 208.628906 323.933594 201.078125 323.933594 191.78125 C 323.933594 182.480469 331.484375 174.933594 340.78125 174.933594 C 350.082031 174.933594 357.628906 182.480469 357.628906 191.78125 Z M 352.046875 191.78125 C 352.046875 185.5625 347 180.515625 340.78125 180.515625 C 334.566406 180.515625 329.515625 185.5625 329.515625 191.78125 C 329.515625 197.996094 334.566406 203.046875 340.78125 203.046875 C 347 203.046875 352.046875 197.996094 352.046875 191.78125 Z M 352.046875 191.78125 " fill-opacity="1" fill-rule="evenodd"/></g><g clip-path="url(#b727024761)"><path fill="#94d3bf" d="M 187.367188 362.042969 C 178.070312 362.042969 170.519531 354.492188 170.519531 345.195312 C 170.519531 335.894531 178.070312 328.347656 187.367188 328.347656 C 196.667969 328.347656 204.214844 335.894531 204.214844 345.195312 C 204.214844 354.492188 196.667969 362.042969 187.367188 362.042969 Z M 187.367188 356.457031 C 193.585938 356.457031 198.632812 351.410156 198.632812 345.195312 C 198.632812 338.976562 193.585938 333.929688 187.367188 333.929688 C 181.152344 333.929688 176.101562 338.976562 176.101562 345.195312 C 176.101562 351.410156 181.152344 356.457031 187.367188 356.457031 Z M 187.367188 356.457031 " fill-opacity="1" fill-rule="evenodd"/></g><g clip-path="url(#6843acf7e4)"><path fill="#f285b1" d="M 17.105469 191.78125 C 17.105469 182.480469 24.65625 174.933594 33.957031 174.933594 C 43.253906 174.933594 50.800781 182.480469 50.800781 191.78125 C 50.800781 201.078125 43.253906 208.628906 33.957031 208.628906 C 24.65625 208.628906 17.105469 201.078125 17.105469 191.78125 Z M 22.691406 191.78125 C 22.691406 197.996094 27.738281 203.046875 33.957031 203.046875 C 40.171875 203.046875 45.21875 197.996094 45.21875 191.78125 C 45.21875 185.5625 40.171875 180.515625 33.957031 180.515625 C 27.738281 180.515625 22.691406 185.5625 22.691406 191.78125 Z M 22.691406 191.78125 " fill-opacity="1" fill-rule="evenodd"/></g><path fill="#dd6776" d="M 281.113281 146.304688 L 281.113281 237.257812 C 281.113281 263.898438 259.484375 285.523438 232.84375 285.523438 L 141.890625 285.523438 C 115.25 285.523438 93.625 263.898438 93.625 237.257812 L 93.625 146.304688 C 93.625 119.664062 115.25 98.035156 141.890625 98.035156 L 232.84375 98.035156 C 259.484375 98.035156 281.113281 119.664062 281.113281 146.304688 Z M 275.53125 146.304688 C 275.53125 122.746094 256.40625 103.617188 232.84375 103.617188 L 141.890625 103.617188 C 118.332031 103.617188 99.207031 122.746094 99.207031 146.304688 L 99.207031 237.257812 C 99.207031 260.816406 118.332031 279.941406 141.890625 279.941406 L 232.84375 279.941406 C 256.40625 279.941406 275.53125 260.816406 275.53125 237.257812 Z M 275.53125 146.304688 " fill-opacity="1" fill-rule="evenodd"/><g fill="#000000" fill-opacity="1"><g transform="translate(183.281244, 197.536761)"><g><path d="M 2.109375 0.078125 C 1.804688 0.078125 1.566406 -0.00390625 1.390625 -0.171875 C 1.222656 -0.335938 1.140625 -0.5625 1.140625 -0.84375 C 1.140625 -1.113281 1.222656 -1.332031 1.390625 -1.5 C 1.566406 -1.675781 1.804688 -1.765625 2.109375 -1.765625 C 2.410156 -1.765625 2.644531 -1.679688 2.8125 -1.515625 C 2.988281 -1.347656 3.078125 -1.128906 3.078125 -0.859375 C 3.078125 -0.578125 2.988281 -0.347656 2.8125 -0.171875 C 2.632812 -0.00390625 2.398438 0.078125 2.109375 0.078125 Z M 2.109375 0.078125 "/></g></g></g></svg>