<svg xmlns="http://www.w3.org/2000/svg" xmlns:xlink="http://www.w3.org/1999/xlink" width="500" zoomAndPan="magnify" viewBox="0 0 375 374.999991" height="500" preserveAspectRatio="xMidYMid meet" version="1.0"><defs><g/><clipPath id="9f902fc080"><path d="M 21.742188 21.742188 L 129 21.742188 L 129 129 L 21.742188 129 Z M 21.742188 21.742188 " clip-rule="nonzero"/></clipPath><clipPath id="fa24415c44"><path d="M 246 21.742188 L 353.242188 21.742188 L 353.242188 118 L 246 118 Z M 246 21.742188 " clip-rule="nonzero"/></clipPath><clipPath id="87589f6c3a"><path d="M 257 257 L 353.242188 257 L 353.242188 353.242188 L 257 353.242188 Z M 257 257 " clip-rule="nonzero"/></clipPath><clipPath id="a606feb445"><path d="M 21.742188 257 L 118 257 L 118 353.242188 L 21.742188 353.242188 Z M 21.742188 257 " clip-rule="nonzero"/></clipPath></defs><path fill="#71d6fc" d="M 134.027344 123.332031 L 240.960938 123.332031 C 241.664062 123.332031 242.359375 123.402344 243.046875 123.539062 C 243.734375 123.675781 244.40625 123.878906 245.054688 124.144531 C 245.703125 124.414062 246.320312 124.746094 246.902344 125.132812 C 247.484375 125.523438 248.027344 125.96875 248.523438 126.464844 C 249.019531 126.960938 249.460938 127.5 249.851562 128.085938 C 250.242188 128.667969 250.570312 129.285156 250.839844 129.933594 C 251.109375 130.582031 251.3125 131.25 251.449219 131.941406 C 251.585938 132.628906 251.65625 133.324219 251.65625 134.027344 L 251.65625 240.960938 C 251.65625 241.664062 251.585938 242.359375 251.449219 243.046875 C 251.3125 243.734375 251.109375 244.40625 250.839844 245.054688 C 250.570312 245.703125 250.242188 246.320312 249.851562 246.902344 C 249.460938 247.484375 249.019531 248.027344 248.523438 248.523438 C 248.027344 249.019531 247.484375 249.460938 246.902344 249.851562 C 246.320312 250.242188 245.703125 250.570312 245.054688 250.839844 C 244.40625 251.109375 243.734375 251.3125 243.046875 251.449219 C 242.359375 251.585938 241.664062 251.65625 240.960938 251.65625 L 134.027344 251.65625 C 133.324219 251.65625 132.628906 251.585938 131.941406 251.449219 C 131.25 251.3125 130.582031 251.109375 129.933594 250.839844 C 129.285156 250.570312 128.667969 250.242188 128.085938 249.851562 C 127.5 249.460938 126.960938 249.019531 126.464844 248.523438 C 125.96875 248.027344 125.523438 247.484375 125.132812 246.902344 C 124.746094 246.320312 124.414062 245.703125 124.144531 245.054688 C 123.878906 244.40625 123.675781 243.734375 123.539062 243.046875 C 123.402344 242.359375 123.332031 241.664062 123.332031 240.960938 L 123.332031 134.027344 C 123.332031 133.324219 123.402344 132.628906 123.539062 131.941406 C 123.675781 131.25 123.878906 130.582031 124.144531 129.933594 C 124.414062 129.285156 124.746094 128.667969 125.132812 128.085938 C 125.523438 127.5 125.96875 126.960938 126.464844 126.464844 C 126.960938 125.96875 127.5 125.523438 128.085938 125.132812 C 128.667969 124.746094 129.285156 124.414062 129.933594 124.144531 C 130.582031 123.878906 131.25 123.675781 131.941406 123.539062 C 132.628906 123.402344 133.324219 123.332031 134.027344 123.332031 Z M 134.027344 123.332031 " fill-opacity="1" fill-rule="nonzero"/><path fill="#407ad6" d="M 139.371094 101.945312 L 160.761719 101.945312 L 160.761719 123.332031 L 139.371094 123.332031 Z M 139.371094 101.945312 " fill-opacity="1" fill-rule="nonzero"/><path fill="#407ad6" d="M 176.800781 101.945312 L 198.1875 101.945312 L 198.1875 123.332031 L 176.800781 123.332031 Z M 176.800781 101.945312 " fill-opacity="1" fill-rule="nonzero"/><path fill="#407ad6" d="M 214.226562 101.945312 L 235.613281 101.945312 L 235.613281 123.332031 L 214.226562 123.332031 Z M 214.226562 101.945312 " fill-opacity="1" fill-rule="nonzero"/><path fill="#407ad6" d="M 101.945312 235.613281 L 101.945312 214.226562 L 123.332031 214.226562 L 123.332031 235.613281 Z M 101.945312 235.613281 " fill-opacity="1" fill-rule="nonzero"/><path fill="#407ad6" d="M 101.945312 198.1875 L 101.945312 176.800781 L 123.332031 176.800781 L 123.332031 198.1875 Z M 101.945312 198.1875 " fill-opacity="1" fill-rule="nonzero"/><path fill="#407ad6" d="M 101.945312 160.761719 L 101.945312 139.371094 L 123.332031 139.371094 L 123.332031 160.761719 Z M 101.945312 160.761719 " fill-opacity="1" fill-rule="nonzero"/><path fill="#407ad6" d="M 251.65625 235.613281 L 251.65625 214.226562 L 273.042969 214.226562 L 273.042969 235.613281 Z M 251.65625 235.613281 " fill-opacity="1" fill-rule="nonzero"/><path fill="#407ad6" d="M 251.65625 198.1875 L 251.65625 176.800781 L 273.042969 176.800781 L 273.042969 198.1875 Z M 251.65625 198.1875 " fill-opacity="1" fill-rule="nonzero"/><path fill="#407ad6" d="M 251.65625 160.761719 L 251.65625 139.371094 L 273.042969 139.371094 L 273.042969 160.761719 Z M 251.65625 160.761719 " fill-opacity="1" fill-rule="nonzero"/><path fill="#407ad6" d="M 139.371094 251.65625 L 160.761719 251.65625 L 160.761719 273.042969 L 139.371094 273.042969 Z M 139.371094 251.65625 " fill-opacity="1" fill-rule="nonzero"/><path fill="#407ad6" d="M 176.800781 251.65625 L 198.1875 251.65625 L 198.1875 273.042969 L 176.800781 273.042969 Z M 176.800781 251.65625 " fill-opacity="1" fill-rule="nonzero"/><path fill="#407ad6" d="M 214.226562 251.65625 L 235.613281 251.65625 L 235.613281 273.042969 L 214.226562 273.042969 Z M 214.226562 251.65625 " fill-opacity="1" fill-rule="nonzero"/><g clip-path="url(#9f902fc080)"><path fill="#407ad6" d="M 128.679688 85.90625 L 128.679688 64.519531 L 110.273438 62.21875 C 109.945312 61.328125 109.589844 60.457031 109.195312 59.601562 L 120.582031 44.964844 L 105.457031 29.84375 L 90.820312 41.226562 C 89.964844 40.832031 89.09375 40.476562 88.207031 40.148438 L 85.90625 21.742188 L 64.519531 21.742188 L 62.21875 40.148438 C 61.328125 40.476562 60.457031 40.832031 59.601562 41.226562 L 44.964844 29.84375 L 29.84375 44.964844 L 41.226562 59.601562 C 40.832031 60.457031 40.476562 61.328125 40.148438 62.21875 L 21.742188 64.519531 L 21.742188 85.90625 L 40.148438 88.207031 C 40.476562 89.09375 40.832031 89.964844 41.226562 90.820312 L 29.84375 105.457031 L 44.964844 120.582031 L 59.601562 109.195312 C 60.457031 109.589844 61.328125 109.945312 62.21875 110.273438 L 64.519531 128.679688 L 85.90625 128.679688 L 88.207031 110.273438 C 89.09375 109.945312 89.964844 109.589844 90.820312 109.195312 L 105.457031 120.582031 L 120.582031 105.457031 L 109.195312 90.820312 C 109.589844 89.964844 109.945312 89.09375 110.273438 88.207031 Z M 75.210938 96.597656 C 63.398438 96.597656 53.824219 87.023438 53.824219 75.210938 C 53.824219 63.398438 63.398438 53.824219 75.210938 53.824219 C 87.023438 53.824219 96.597656 63.398438 96.597656 75.210938 C 96.597656 87.023438 87.023438 96.597656 75.210938 96.597656 Z M 75.210938 96.597656 " fill-opacity="1" fill-rule="nonzero"/></g><g clip-path="url(#fa24415c44)"><path fill="#71d6fc" d="M 299.777344 21.742188 C 270.246094 21.742188 246.308594 40.894531 246.308594 64.519531 C 246.308594 79.679688 256.195312 92.964844 271.0625 100.558594 L 262.347656 117.984375 L 290.726562 106.632812 C 293.675781 107.035156 296.683594 107.292969 299.777344 107.292969 C 329.304688 107.292969 353.242188 88.140625 353.242188 64.519531 C 353.242188 40.894531 329.304688 21.742188 299.777344 21.742188 Z M 299.777344 21.742188 " fill-opacity="1" fill-rule="nonzero"/></g><path fill="#1b498f" d="M 166.105469 208.878906 C 164.351562 208.878906 162.664062 208.015625 161.65625 206.5 L 150.066406 189.113281 L 150.066406 203.535156 C 150.066406 206.488281 147.675781 208.878906 144.71875 208.878906 C 141.765625 208.878906 139.371094 206.488281 139.371094 203.535156 L 139.371094 171.457031 C 139.371094 169.101562 140.914062 167.019531 143.167969 166.339844 C 145.425781 165.648438 147.867188 166.53125 149.167969 168.488281 L 160.761719 185.875 L 160.761719 171.457031 C 160.761719 168.503906 163.152344 166.109375 166.105469 166.109375 C 169.0625 166.109375 171.453125 168.503906 171.453125 171.457031 L 171.453125 203.535156 C 171.453125 205.890625 169.914062 207.96875 167.65625 208.652344 C 167.144531 208.808594 166.625 208.878906 166.105469 208.878906 Z M 166.105469 208.878906 " fill-opacity="1" fill-rule="nonzero"/><path fill="#1b498f" d="M 198.1875 208.878906 L 182.148438 208.878906 C 179.191406 208.878906 176.800781 206.488281 176.800781 203.535156 L 176.800781 171.453125 C 176.800781 168.5 179.191406 166.105469 182.148438 166.105469 C 185.101562 166.105469 187.492188 168.5 187.492188 171.453125 L 187.492188 198.1875 L 198.1875 198.1875 C 201.140625 198.1875 203.535156 200.582031 203.535156 203.535156 C 203.535156 206.488281 201.140625 208.878906 198.1875 208.878906 Z M 198.1875 208.878906 " fill-opacity="1" fill-rule="nonzero"/><path fill="#1b498f" d="M 219.574219 166.105469 L 214.226562 166.105469 C 211.273438 166.105469 208.878906 168.5 208.878906 171.453125 L 208.878906 203.535156 C 208.878906 206.488281 211.273438 208.878906 214.226562 208.878906 C 217.183594 208.878906 219.574219 206.488281 219.574219 203.535156 L 219.574219 198.1875 C 228.417969 198.1875 235.613281 190.992188 235.613281 182.148438 C 235.613281 173.300781 228.417969 166.105469 219.574219 166.105469 Z M 219.574219 187.492188 L 219.574219 176.800781 C 222.523438 176.800781 224.921875 179.199219 224.921875 182.148438 C 224.921875 185.09375 222.523438 187.492188 219.574219 187.492188 Z M 219.574219 187.492188 " fill-opacity="1" fill-rule="nonzero"/><g clip-path="url(#87589f6c3a)"><path fill="#407ad6" d="M 347.898438 353.242188 L 262.347656 353.242188 C 259.394531 353.242188 257 350.851562 257 347.898438 L 257 262.347656 C 257 259.394531 259.394531 257 262.347656 257 C 265.304688 257 267.695312 259.394531 267.695312 262.347656 L 267.695312 342.550781 L 347.898438 342.550781 C 350.851562 342.550781 353.242188 344.945312 353.242188 347.898438 C 353.242188 350.851562 350.851562 353.242188 347.898438 353.242188 Z M 347.898438 353.242188 " fill-opacity="1" fill-rule="nonzero"/></g><path fill="#407ad6" d="M 342.136719 287.039062 C 341.597656 285.730469 340.554688 284.691406 339.246094 284.148438 C 338.59375 283.878906 337.898438 283.734375 337.203125 283.734375 L 321.164062 283.734375 C 318.207031 283.734375 315.816406 286.128906 315.816406 289.082031 C 315.816406 292.035156 318.207031 294.429688 321.164062 294.429688 L 324.292969 294.429688 L 314.371094 304.351562 L 301.46875 300.050781 C 299.539062 299.402344 297.425781 299.910156 295.996094 301.34375 L 279.957031 317.382812 C 277.867188 319.472656 277.867188 322.855469 279.957031 324.941406 C 281 325.988281 282.367188 326.511719 283.734375 326.511719 C 285.105469 326.511719 286.472656 325.988281 287.515625 324.941406 L 301.222656 311.238281 L 314.125 315.542969 C 316.050781 316.183594 318.164062 315.679688 319.597656 314.25 L 331.855469 301.988281 L 331.855469 305.121094 C 331.855469 308.074219 334.246094 310.46875 337.203125 310.46875 C 340.160156 310.46875 342.550781 308.074219 342.550781 305.121094 L 342.550781 289.082031 C 342.550781 288.386719 342.410156 287.695312 342.136719 287.039062 Z M 342.136719 287.039062 " fill-opacity="1" fill-rule="nonzero"/><path fill="#407ad6" d="M 320.824219 78.679688 L 304.78125 35.90625 C 304 33.820312 302.003906 32.4375 299.777344 32.4375 C 297.546875 32.4375 295.550781 33.820312 294.769531 35.90625 L 278.730469 78.679688 C 277.695312 81.445312 279.09375 84.523438 281.855469 85.5625 C 284.617188 86.582031 287.703125 85.199219 288.742188 82.433594 L 291.453125 75.210938 L 308.097656 75.210938 L 310.808594 82.433594 C 311.613281 84.578125 313.652344 85.90625 315.816406 85.90625 C 316.441406 85.90625 317.074219 85.792969 317.695312 85.5625 C 320.457031 84.523438 321.855469 81.445312 320.824219 78.679688 Z M 295.460938 64.515625 L 299.777344 53.011719 L 304.089844 64.515625 Z M 295.460938 64.515625 " fill-opacity="1" fill-rule="nonzero"/><path fill="#71d6fc" d="M 113.171875 305.121094 C 113.171875 306.542969 113.105469 307.957031 112.964844 309.367188 C 112.824219 310.777344 112.617188 312.179688 112.339844 313.570312 C 112.066406 314.964844 111.71875 316.335938 111.308594 317.695312 C 110.898438 319.050781 110.417969 320.386719 109.875 321.695312 C 109.335938 323.007812 108.726562 324.289062 108.058594 325.539062 C 107.390625 326.789062 106.664062 328.003906 105.875 329.183594 C 105.085938 330.363281 104.242188 331.5 103.34375 332.597656 C 102.441406 333.695312 101.492188 334.742188 100.488281 335.746094 C 99.484375 336.75 98.4375 337.699219 97.339844 338.601562 C 96.242188 339.5 95.105469 340.34375 93.925781 341.132812 C 92.746094 341.921875 91.53125 342.648438 90.28125 343.316406 C 89.03125 343.988281 87.75 344.59375 86.4375 345.136719 C 85.128906 345.675781 83.792969 346.15625 82.4375 346.566406 C 81.078125 346.976562 79.703125 347.324219 78.3125 347.597656 C 76.921875 347.875 75.519531 348.085938 74.109375 348.222656 C 72.699219 348.363281 71.28125 348.429688 69.863281 348.429688 C 68.445312 348.429688 67.03125 348.363281 65.621094 348.222656 C 64.207031 348.082031 62.808594 347.875 61.414062 347.597656 C 60.023438 347.324219 58.648438 346.976562 57.292969 346.566406 C 55.933594 346.15625 54.601562 345.675781 53.292969 345.136719 C 51.980469 344.59375 50.699219 343.988281 49.449219 343.316406 C 48.199219 342.648438 46.984375 341.921875 45.804688 341.132812 C 44.625 340.34375 43.484375 339.5 42.390625 338.601562 C 41.292969 337.699219 40.242188 336.75 39.242188 335.746094 C 38.238281 334.742188 37.285156 333.695312 36.386719 332.597656 C 35.488281 331.5 34.644531 330.363281 33.855469 329.183594 C 33.066406 328.003906 32.339844 326.789062 31.667969 325.539062 C 31 324.289062 30.394531 323.007812 29.851562 321.695312 C 29.308594 320.386719 28.832031 319.050781 28.421875 317.695312 C 28.007812 316.335938 27.664062 314.964844 27.386719 313.570312 C 27.109375 312.179688 26.902344 310.777344 26.765625 309.367188 C 26.625 307.957031 26.554688 306.542969 26.554688 305.121094 C 26.554688 303.703125 26.625 302.289062 26.765625 300.878906 C 26.902344 299.464844 27.109375 298.066406 27.386719 296.671875 C 27.664062 295.28125 28.007812 293.90625 28.421875 292.550781 C 28.832031 291.195312 29.308594 289.859375 29.851562 288.550781 C 30.394531 287.238281 31 285.957031 31.667969 284.707031 C 32.339844 283.457031 33.066406 282.242188 33.855469 281.0625 C 34.644531 279.882812 35.488281 278.746094 36.386719 277.648438 C 37.285156 276.550781 38.238281 275.5 39.242188 274.5 C 40.242188 273.496094 41.292969 272.542969 42.390625 271.644531 C 43.484375 270.746094 44.625 269.902344 45.804688 269.113281 C 46.984375 268.324219 48.199219 267.597656 49.449219 266.925781 C 50.699219 266.257812 51.980469 265.652344 53.292969 265.109375 C 54.601562 264.566406 55.933594 264.089844 57.292969 263.679688 C 58.648438 263.265625 60.023438 262.921875 61.414062 262.644531 C 62.808594 262.371094 64.207031 262.160156 65.621094 262.023438 C 67.03125 261.882812 68.445312 261.8125 69.863281 261.8125 C 71.28125 261.8125 72.699219 261.882812 74.109375 262.023438 C 75.519531 262.160156 76.921875 262.371094 78.3125 262.644531 C 79.703125 262.921875 81.078125 263.265625 82.4375 263.679688 C 83.792969 264.089844 85.128906 264.566406 86.4375 265.109375 C 87.75 265.652344 89.03125 266.257812 90.28125 266.925781 C 91.53125 267.597656 92.746094 268.324219 93.925781 269.113281 C 95.105469 269.902344 96.242188 270.746094 97.339844 271.644531 C 98.4375 272.542969 99.484375 273.496094 100.488281 274.5 C 101.492188 275.5 102.441406 276.550781 103.34375 277.648438 C 104.242188 278.746094 105.085938 279.882812 105.875 281.0625 C 106.664062 282.242188 107.390625 283.457031 108.058594 284.707031 C 108.726562 285.957031 109.335938 287.238281 109.875 288.550781 C 110.417969 289.859375 110.898438 291.195312 111.308594 292.550781 C 111.71875 293.90625 112.066406 295.28125 112.339844 296.671875 C 112.617188 298.066406 112.824219 299.464844 112.964844 300.878906 C 113.105469 302.289062 113.171875 303.703125 113.171875 305.121094 Z M 113.171875 305.121094 " fill-opacity="1" fill-rule="nonzero"/><g clip-path="url(#a606feb445)"><path fill="#407ad6" d="M 69.863281 257 C 43.332031 257 21.742188 278.589844 21.742188 305.121094 C 21.742188 331.65625 43.332031 353.242188 69.863281 353.242188 C 96.398438 353.242188 117.984375 331.65625 117.984375 305.121094 C 117.984375 278.589844 96.398438 257 69.863281 257 Z M 108.363281 305.121094 C 108.363281 308.667969 107.839844 312.089844 106.9375 315.351562 C 104.15625 314.480469 101.296875 313.699219 98.332031 313.035156 C 98.578125 310.460938 98.738281 307.832031 98.738281 305.121094 C 98.738281 302.414062 98.578125 299.785156 98.332031 297.207031 C 101.296875 296.546875 104.15625 295.765625 106.9375 294.890625 C 107.839844 298.15625 108.363281 301.578125 108.363281 305.121094 Z M 31.367188 305.121094 C 31.367188 301.578125 31.890625 298.15625 32.792969 294.890625 C 35.574219 295.765625 38.433594 296.546875 41.398438 297.207031 C 41.152344 299.785156 40.992188 302.414062 40.992188 305.121094 C 40.992188 307.832031 41.152344 310.460938 41.398438 313.035156 C 38.433594 313.699219 35.574219 314.480469 32.792969 315.351562 C 31.890625 312.089844 31.367188 308.667969 31.367188 305.121094 Z M 50.617188 305.121094 C 50.617188 302.992188 50.734375 300.945312 50.902344 298.941406 C 55.5 299.589844 60.234375 299.960938 65.050781 300.128906 L 65.050781 310.117188 C 60.234375 310.28125 55.5 310.65625 50.902344 311.304688 C 50.734375 309.300781 50.617188 307.253906 50.617188 305.121094 Z M 74.675781 268.058594 C 79.90625 271.070312 84.835938 278.742188 87.359375 289.4375 C 83.242188 290.011719 79 290.347656 74.675781 290.503906 Z M 65.050781 268.058594 L 65.050781 290.503906 C 60.730469 290.347656 56.484375 290.011719 52.371094 289.4375 C 54.894531 278.742188 59.820312 271.070312 65.050781 268.058594 Z M 65.050781 319.738281 L 65.050781 342.1875 C 59.820312 339.175781 54.894531 331.503906 52.371094 320.808594 C 56.484375 320.234375 60.730469 319.898438 65.050781 319.738281 Z M 74.675781 342.1875 L 74.675781 319.738281 C 79 319.898438 83.242188 320.234375 87.359375 320.808594 C 84.835938 331.503906 79.90625 339.175781 74.675781 342.1875 Z M 74.675781 310.117188 L 74.675781 300.128906 C 79.492188 299.960938 84.230469 299.589844 88.828125 298.941406 C 88.996094 300.945312 89.113281 302.992188 89.113281 305.121094 C 89.113281 307.253906 88.996094 309.300781 88.828125 311.304688 C 84.230469 310.65625 79.492188 310.28125 74.675781 310.117188 Z M 103.210938 285.96875 C 101.125 286.597656 99.023438 287.203125 96.824219 287.707031 C 95.628906 282.445312 93.917969 277.65625 91.765625 273.503906 C 96.441406 276.753906 100.355469 281.015625 103.210938 285.96875 Z M 47.964844 273.503906 C 45.8125 277.65625 44.097656 282.445312 42.90625 287.707031 C 40.707031 287.203125 38.605469 286.597656 36.519531 285.96875 C 39.375 281.015625 43.285156 276.753906 47.964844 273.503906 Z M 36.519531 324.277344 C 38.605469 323.644531 40.707031 323.042969 42.90625 322.535156 C 44.097656 327.800781 45.8125 332.589844 47.964844 336.742188 C 43.285156 333.492188 39.375 329.230469 36.519531 324.277344 Z M 91.765625 336.742188 C 93.917969 332.589844 95.628906 327.800781 96.824219 322.535156 C 99.023438 323.042969 101.125 323.644531 103.210938 324.277344 C 100.355469 329.230469 96.441406 333.492188 91.765625 336.742188 Z M 91.765625 336.742188 " fill-opacity="1" fill-rule="nonzero"/></g><path fill="#1b498f" d="M 150.066406 48.476562 L 160.761719 48.476562 L 160.761719 59.171875 L 150.066406 59.171875 Z M 150.066406 48.476562 " fill-opacity="1" fill-rule="nonzero"/><path fill="#1b498f" d="M 171.453125 48.476562 L 182.148438 48.476562 L 182.148438 59.171875 L 171.453125 59.171875 Z M 171.453125 48.476562 " fill-opacity="1" fill-rule="nonzero"/><path fill="#1b498f" d="M 192.839844 48.476562 L 203.535156 48.476562 L 203.535156 59.171875 L 192.839844 59.171875 Z M 192.839844 48.476562 " fill-opacity="1" fill-rule="nonzero"/><path fill="#1b498f" d="M 214.226562 48.476562 L 224.921875 48.476562 L 224.921875 59.171875 L 214.226562 59.171875 Z M 214.226562 48.476562 " fill-opacity="1" fill-rule="nonzero"/><path fill="#1b498f" d="M 150.066406 315.816406 L 160.761719 315.816406 L 160.761719 326.511719 L 150.066406 326.511719 Z M 150.066406 315.816406 " fill-opacity="1" fill-rule="nonzero"/><path fill="#1b498f" d="M 171.453125 315.816406 L 182.148438 315.816406 L 182.148438 326.511719 L 171.453125 326.511719 Z M 171.453125 315.816406 " fill-opacity="1" fill-rule="nonzero"/><path fill="#1b498f" d="M 192.839844 315.816406 L 203.535156 315.816406 L 203.535156 326.511719 L 192.839844 326.511719 Z M 192.839844 315.816406 " fill-opacity="1" fill-rule="nonzero"/><path fill="#1b498f" d="M 214.226562 315.816406 L 224.921875 315.816406 L 224.921875 326.511719 L 214.226562 326.511719 Z M 214.226562 315.816406 " fill-opacity="1" fill-rule="nonzero"/><path fill="#1b498f" d="M 315.816406 150.066406 L 326.511719 150.066406 L 326.511719 160.761719 L 315.816406 160.761719 Z M 315.816406 150.066406 " fill-opacity="1" fill-rule="nonzero"/><path fill="#1b498f" d="M 315.816406 171.453125 L 326.511719 171.453125 L 326.511719 182.148438 L 315.816406 182.148438 Z M 315.816406 171.453125 " fill-opacity="1" fill-rule="nonzero"/><path fill="#1b498f" d="M 315.816406 192.839844 L 326.511719 192.839844 L 326.511719 203.535156 L 315.816406 203.535156 Z M 315.816406 192.839844 " fill-opacity="1" fill-rule="nonzero"/><path fill="#1b498f" d="M 315.816406 214.226562 L 326.511719 214.226562 L 326.511719 224.921875 L 315.816406 224.921875 Z M 315.816406 214.226562 " fill-opacity="1" fill-rule="nonzero"/><path fill="#1b498f" d="M 48.476562 150.066406 L 59.171875 150.066406 L 59.171875 160.761719 L 48.476562 160.761719 Z M 48.476562 150.066406 " fill-opacity="1" fill-rule="nonzero"/><path fill="#1b498f" d="M 48.476562 171.453125 L 59.171875 171.453125 L 59.171875 182.148438 L 48.476562 182.148438 Z M 48.476562 171.453125 " fill-opacity="1" fill-rule="nonzero"/><path fill="#1b498f" d="M 48.476562 192.839844 L 59.171875 192.839844 L 59.171875 203.535156 L 48.476562 203.535156 Z M 48.476562 192.839844 " fill-opacity="1" fill-rule="nonzero"/><path fill="#1b498f" d="M 48.476562 214.226562 L 59.171875 214.226562 L 59.171875 224.921875 L 48.476562 224.921875 Z M 48.476562 214.226562 " fill-opacity="1" fill-rule="nonzero"/><g fill="#000000" fill-opacity="1"><g transform="translate(183.281244, 197.536761)"><g><path d="M 2.109375 0.078125 C 1.804688 0.078125 1.566406 -0.00390625 1.390625 -0.171875 C 1.222656 -0.335938 1.140625 -0.5625 1.140625 -0.84375 C 1.140625 -1.113281 1.222656 -1.332031 1.390625 -1.5 C 1.566406 -1.675781 1.804688 -1.765625 2.109375 -1.765625 C 2.410156 -1.765625 2.644531 -1.679688 2.8125 -1.515625 C 2.988281 -1.347656 3.078125 -1.128906 3.078125 -0.859375 C 3.078125 -0.578125 2.988281 -0.347656 2.8125 -0.171875 C 2.632812 -0.00390625 2.398438 0.078125 2.109375 0.078125 Z M 2.109375 0.078125 "/></g></g></g></svg>