<svg xmlns="http://www.w3.org/2000/svg" xmlns:xlink="http://www.w3.org/1999/xlink" width="500" zoomAndPan="magnify" viewBox="0 0 375 374.999991" height="500" preserveAspectRatio="xMidYMid meet" version="1.0"><path fill="#328fda" d="M 170.09375 123.195312 L 180.597656 123.195312 L 180.597656 143.128906 L 184.800781 143.128906 L 184.800781 136.832031 L 194.253906 136.832031 L 194.253906 143.128906 L 198.453125 143.128906 L 198.453125 123.195312 L 208.957031 123.195312 L 208.957031 174.601562 L 198.453125 174.601562 L 198.453125 154.667969 L 180.597656 154.667969 L 180.597656 174.601562 L 170.09375 174.601562 Z M 224.710938 123.195312 L 248.871094 123.195312 L 249.921875 129.488281 L 256.222656 130.539062 L 256.222656 154.667969 L 248.871094 154.667969 L 248.871094 160.964844 L 245.71875 160.964844 L 246.769531 163.0625 C 249.421875 163.75 249.421875 163.75 252.019531 164.109375 L 252.019531 174.601562 L 242.566406 174.601562 L 241.519531 168.308594 L 235.214844 167.257812 L 235.214844 160.964844 L 227.863281 160.964844 L 227.863281 174.601562 L 217.359375 174.601562 L 217.359375 130.539062 L 223.660156 129.488281 Z M 228.914062 133.6875 L 227.863281 134.734375 C 227.789062 137.378906 227.765625 140.023438 227.796875 142.671875 L 227.863281 150.472656 L 245.71875 150.472656 L 245.785156 142.671875 L 245.8125 140.207031 C 245.820312 138.382812 245.773438 136.558594 245.71875 134.734375 L 244.667969 133.6875 C 242.03125 133.582031 239.429688 133.539062 236.792969 133.554688 L 234.554688 133.542969 C 232.675781 133.546875 230.792969 133.613281 228.914062 133.6875 M 130.179688 123.195312 L 154.339844 123.195312 L 155.390625 129.488281 L 161.691406 130.539062 L 161.691406 141.03125 L 151.1875 141.03125 L 150.136719 134.734375 L 134.382812 134.734375 L 133.332031 143.128906 L 154.339844 143.128906 L 154.339844 150.472656 L 161.691406 150.472656 L 161.691406 167.257812 L 154.339844 167.257812 L 154.339844 174.601562 L 130.179688 174.601562 L 129.128906 168.308594 L 122.828125 167.257812 L 122.828125 156.765625 L 133.332031 156.765625 L 134.382812 163.0625 L 150.136719 163.0625 L 151.1875 154.667969 L 130.179688 154.667969 L 130.179688 147.324219 L 122.828125 147.324219 L 122.828125 130.539062 L 129.128906 129.488281 Z M 120.726562 212.371094 C 125.183594 213.699219 128.242188 215.703125 131.558594 218.929688 C 134.835938 224.265625 136.660156 229.078125 136.875 235.386719 C 136.707031 240.671875 135.511719 245.328125 133.332031 250.140625 C 131.558594 252.828125 131.558594 252.828125 130.179688 254.335938 C 130.558594 254.855469 130.9375 255.371094 131.328125 255.90625 L 132.808594 257.941406 L 134.285156 259.972656 L 135.433594 261.679688 L 135.433594 262.730469 C 129.175781 263.035156 129.175781 263.035156 127.03125 262.730469 L 125.515625 261.144531 C 124.976562 260.628906 124.433594 260.113281 123.878906 259.582031 C 121.3125 259.320312 121.3125 259.320312 118.496094 259.582031 C 113.644531 259.683594 109.605469 259.390625 105.050781 257.667969 C 100.902344 255.320312 98.167969 251.941406 95.519531 248.042969 C 92.929688 243.089844 92.980469 237.84375 93.089844 232.347656 C 93.585938 227.546875 94.9375 223.726562 97.621094 219.714844 C 104.320312 212.414062 111.191406 211.382812 120.726562 212.371094 M 107.140625 222.992188 C 104.847656 226.183594 103.714844 228.476562 102.871094 232.304688 C 102.476562 236.625 102.804688 239.449219 104.183594 243.582031 C 105.789062 246.929688 105.789062 246.929688 107.925781 248.960938 C 110.765625 250.417969 113.371094 250.832031 116.527344 251.1875 L 116.527344 248.042969 C 115.015625 245.765625 115.015625 245.765625 113.375 243.84375 C 116.855469 243.648438 116.855469 243.648438 120.726562 243.84375 C 122.542969 245.429688 122.542969 245.429688 123.878906 246.992188 C 126.132812 242.128906 127.328125 238.539062 126.898438 233.15625 C 126.453125 230.011719 125.875 227.882812 124.535156 224.960938 C 122.804688 222.625 122.804688 222.625 119.675781 220.765625 C 114.726562 219.882812 111.257812 220.019531 107.140625 222.992188 M 167.992188 212.371094 L 180.597656 212.371094 C 183.984375 220.625 187.0625 228.972656 190.050781 237.375 C 190.847656 239.605469 191.648438 241.832031 192.449219 244.058594 L 193.972656 248.332031 L 195.359375 252.207031 C 196.351562 255.386719 196.351562 255.386719 196.351562 258.53125 L 185.847656 258.53125 L 182.699219 248.042969 L 165.894531 248.042969 L 164.84375 255.386719 L 163.792969 258.53125 L 153.289062 258.53125 C 154.601562 252.222656 156.21875 246.214844 158.351562 240.136719 L 159.191406 237.707031 C 160.0625 235.183594 160.941406 232.664062 161.824219 230.140625 L 163.617188 224.960938 C 165.070312 220.761719 166.527344 216.566406 167.992188 212.371094 M 174.296875 221.8125 C 172.082031 228.050781 170.382812 234.214844 169.042969 240.699219 L 179.546875 240.699219 C 178.3125 234.347656 176.96875 228.074219 175.347656 221.8125 Z M 13.59375 212.371094 C 34.597656 212.371094 34.597656 212.371094 41.953125 215.519531 C 44.429688 217.523438 45.898438 219.289062 47.53125 222.011719 C 48.589844 226.332031 48.238281 230.09375 47.203125 234.402344 C 45.496094 237.945312 45.496094 237.945312 43.003906 240.699219 C 39.199219 243.070312 36.839844 243.777344 32.371094 244.03125 C 29.261719 244.039062 26.152344 243.949219 23.046875 243.84375 L 23.046875 258.53125 L 13.59375 258.53125 Z M 23.046875 220.765625 L 23.046875 236.5 C 29.902344 236.65625 29.902344 236.65625 35.648438 234.402344 L 37.75 232.304688 C 38.246094 228.042969 38.246094 228.042969 37.75 223.910156 C 36.023438 221.957031 36.023438 221.957031 33.550781 220.765625 C 30.828125 220.386719 30.828125 220.386719 28.035156 220.566406 Z M 288.125 223.503906 C 290.882812 223.910156 290.882812 223.910156 294.558594 225.746094 C 297.984375 228.824219 299.929688 231.082031 301.386719 235.453125 L 301.386719 243.84375 L 278.28125 243.84375 L 279.332031 250.140625 C 280.835938 250.402344 282.347656 250.636719 283.859375 250.863281 L 286.40625 251.265625 L 288.785156 251.1875 C 289.84375 250.148438 290.894531 249.101562 291.933594 248.042969 C 294.859375 247.933594 297.433594 248.566406 300.335938 249.089844 C 300.207031 251.449219 300.207031 251.449219 299.285156 254.335938 C 296.527344 256.878906 294.152344 258.25 290.488281 259.136719 C 286.175781 259.746094 282.511719 259.941406 278.410156 258.335938 C 274.632812 256.148438 272.078125 254.109375 269.789062 250.386719 C 267.839844 245.640625 268.300781 240.472656 268.828125 235.453125 C 270.144531 231.238281 272.523438 228.589844 275.71875 225.550781 C 280.070312 223.574219 283.390625 223.320312 288.125 223.5 M 284.582031 230.207031 C 281.5625 231.230469 281.5625 231.230469 279.332031 233.355469 L 278.28125 237.550781 L 291.933594 237.550781 L 290.882812 232.304688 C 288.015625 230.941406 288.015625 230.941406 284.582031 230.207031 M 50.355469 212.371094 C 54.003906 211.789062 57.226562 211.589844 60.859375 212.371094 C 63.78125 215.070312 65.375 218.292969 67.160156 221.8125 C 68.164062 223.585938 69.171875 225.355469 70.179688 227.125 C 70.929688 228.5 71.671875 229.875 72.410156 231.253906 L 74.175781 227.65625 L 76.480469 222.992188 L 77.640625 220.621094 L 78.773438 218.347656 L 79.804688 216.246094 C 80.816406 214.46875 80.816406 214.46875 82.914062 212.371094 C 85.417969 212.167969 85.417969 212.167969 88.296875 212.238281 L 91.195312 212.296875 L 93.417969 212.371094 C 91.066406 217.40625 88.605469 222.273438 85.515625 226.902344 C 80.945312 233.882812 77.210938 239.832031 76.5625 248.308594 C 76.449219 251.730469 76.46875 255.109375 76.613281 258.53125 L 67.160156 258.53125 L 67.445312 255.515625 C 67.71875 249.0625 67.328125 243.390625 64.632812 237.433594 C 61.035156 230.722656 57.019531 224.277344 52.859375 217.902344 C 51.40625 215.519531 51.40625 215.519531 50.355469 212.371094 M 359.15625 223.910156 C 362.898438 225.289062 362.898438 225.289062 365.457031 227.058594 L 367.558594 230.207031 L 367.558594 233.355469 C 361.886719 234.375 361.886719 234.375 359.15625 234.402344 C 357.449219 232.828125 357.449219 232.828125 356.003906 231.253906 C 352.695312 231.5 352.695312 231.5 349.703125 232.304688 L 349.703125 235.453125 L 352.773438 236.222656 L 356.792969 237.289062 L 360.78125 238.320312 C 364.410156 239.648438 364.410156 239.648438 366.949219 241.636719 C 368.609375 243.84375 368.609375 243.84375 369.199219 247.976562 C 369.082031 250.175781 369.082031 250.175781 368.609375 252.238281 C 366.222656 255.464844 364.140625 257.074219 360.601562 258.925781 C 355.410156 259.886719 350.648438 259.722656 345.503906 258.535156 C 342.660156 257.054688 341.378906 255.75 339.199219 253.289062 C 338.519531 251.011719 338.519531 251.011719 338.148438 249.089844 C 339.65625 248.828125 341.167969 248.59375 342.679688 248.371094 L 345.226562 247.964844 L 347.601562 248.042969 C 348.675781 249.070312 349.722656 250.117188 350.753906 251.1875 C 352.910156 251.566406 352.910156 251.566406 355.152344 251.386719 L 359.15625 251.1875 L 358.105469 246.992188 L 355.035156 246.257812 L 351.015625 245.222656 L 347.027344 244.226562 C 343.402344 242.796875 343.402344 242.796875 340.863281 240.214844 C 339.199219 237.550781 339.199219 237.550781 338.609375 234.46875 C 339.195312 231.289062 339.695312 230.226562 341.628906 227.78125 C 346.628906 222.785156 352.441406 223.363281 359.15625 223.910156 M 325.546875 223.910156 C 329.289062 225.289062 329.289062 225.289062 331.847656 227.058594 L 333.949219 230.207031 L 333.949219 233.355469 C 328.273438 234.375 328.273438 234.375 325.546875 234.402344 C 323.839844 232.828125 323.839844 232.828125 322.394531 231.253906 C 319.085938 231.5 319.085938 231.5 316.09375 232.304688 L 316.09375 235.453125 L 319.160156 236.222656 L 323.183594 237.289062 L 327.171875 238.320312 C 330.796875 239.648438 330.796875 239.648438 333.335938 241.636719 C 335 243.84375 335 243.84375 335.589844 247.976562 C 335.46875 250.175781 335.46875 250.175781 335 252.238281 C 332.609375 255.464844 330.527344 257.074219 326.988281 258.925781 C 321.800781 259.886719 317.039062 259.722656 311.890625 258.535156 C 309.050781 257.054688 307.769531 255.75 305.589844 253.289062 C 304.90625 251.011719 304.90625 251.011719 304.539062 249.089844 C 306.042969 248.828125 307.554688 248.59375 309.070312 248.371094 L 311.617188 247.964844 L 313.992188 248.042969 C 315.0625 249.070312 316.113281 250.117188 317.144531 251.1875 C 319.300781 251.566406 319.300781 251.566406 321.542969 251.386719 L 325.546875 251.1875 L 324.496094 246.992188 L 321.425781 246.257812 L 317.40625 245.222656 L 313.417969 244.226562 C 309.789062 242.796875 309.789062 242.796875 307.25 240.214844 C 305.589844 237.550781 305.589844 237.550781 305 234.46875 C 305.582031 231.289062 306.082031 230.226562 308.019531 227.78125 C 313.019531 222.785156 318.828125 223.363281 325.546875 223.910156 M 256.222656 223.910156 C 260.144531 225.800781 261.980469 227.347656 264.492188 230.863281 C 265.675781 233.355469 265.675781 233.355469 265.675781 235.453125 L 256.222656 236.5 L 255.171875 232.304688 C 250.960938 232.117188 250.960938 232.117188 246.769531 232.304688 L 244.667969 234.402344 C 243.847656 237.882812 243.578125 241.324219 243.617188 244.894531 C 244.566406 248.140625 244.566406 248.140625 246.769531 250.140625 C 249.335938 251.265625 249.335938 251.265625 252.019531 251.1875 L 255.171875 249.089844 L 256.222656 245.941406 L 265.675781 246.992188 C 265.609375 249.222656 265.609375 249.222656 264.625 252.238281 C 262.515625 254.9375 260.246094 256.828125 257.273438 258.53125 C 252.988281 259.773438 248.984375 260.0625 244.609375 259.109375 C 241.421875 257.925781 239.347656 256.363281 236.988281 253.941406 C 234.277344 249.734375 233.195312 246.917969 232.789062 241.878906 C 232.921875 237.441406 234.117188 234.125 236.265625 230.207031 C 238.890625 227.191406 238.890625 227.191406 241.519531 224.960938 C 246.382812 223.339844 251.144531 223.390625 256.222656 223.910156 M 217.605469 223.617188 C 220.511719 223.910156 220.511719 223.910156 224.1875 225.683594 C 226.804688 228.101562 228.441406 230.140625 229.964844 233.355469 L 229.964844 235.453125 C 224.410156 236.5625 224.410156 236.5625 221.5625 236.5 C 219.328125 234.46875 219.328125 234.46875 217.359375 232.304688 C 214.03125 231.953125 214.03125 231.953125 211.058594 232.304688 C 209.359375 235.5625 207.984375 238.203125 207.785156 241.894531 C 207.941406 244.421875 207.941406 244.421875 208.957031 248.042969 C 210.632812 250.347656 210.632812 250.347656 213.160156 251.1875 C 215.886719 251.273438 215.886719 251.273438 218.410156 250.140625 C 220.324219 248.085938 220.324219 248.085938 221.5625 245.941406 L 229.964844 246.992188 C 229.765625 249.289062 229.765625 249.289062 228.914062 252.238281 C 226.425781 255.289062 224.300781 257.164062 220.773438 258.925781 C 216.25 259.796875 212.378906 259.636719 207.90625 258.53125 C 204.433594 256.734375 202.226562 255.066406 199.703125 252.105469 C 197.851562 247.636719 197.292969 243.425781 197.402344 238.597656 C 197.964844 235.460938 198.867188 232.914062 200.554688 230.207031 C 205.835938 224.566406 210.117188 223.539062 217.605469 223.617188 " fill-opacity="1" fill-rule="nonzero"/></svg>